<svg width="44" height="44" viewBox="0 0 44 44" fill="none" xmlns="http://www.w3.org/2000/svg">
<g id="Frame">
<path id="Vector" d="M7.33203 40.3334C7.33203 32.2332 13.8985 25.6667 21.9987 25.6667C30.0989 25.6667 36.6654 32.2332 36.6654 40.3334H32.9987C32.9987 34.2583 28.0738 29.3334 21.9987 29.3334C15.9236 29.3334 10.9987 34.2583 10.9987 40.3334H7.33203ZM21.9987 23.8334C15.9212 23.8334 10.9987 18.9109 10.9987 12.8334C10.9987 6.75587 15.9212 1.83337 21.9987 1.83337C28.0762 1.83337 32.9987 6.75587 32.9987 12.8334C32.9987 18.9109 28.0762 23.8334 21.9987 23.8334ZM21.9987 20.1667C26.0504 20.1667 29.332 16.885 29.332 12.8334C29.332 8.78171 26.0504 5.50004 21.9987 5.50004C17.947 5.50004 14.6654 8.78171 14.6654 12.8334C14.6654 16.885 17.947 20.1667 21.9987 20.1667Z" fill="#183165"/>
</g>
</svg>
