<svg width="56" height="56" viewBox="0 0 56 56" fill="none" xmlns="http://www.w3.org/2000/svg">
<g id="Frame">
<path id="Vector" d="M4.66406 27.9995C4.66406 25.9824 4.92003 24.0249 5.40128 22.1581C7.94524 22.2899 10.4705 21.0237 11.8316 18.6662C13.1916 16.3106 13.0269 13.493 11.6436 11.3564C14.4257 8.62234 17.8901 6.58051 21.7581 5.50977C22.9159 7.77898 25.2751 9.33291 27.9974 9.33291C30.7197 9.33291 33.0789 7.77898 34.2367 5.50977C38.1047 6.58051 41.5692 8.62234 44.3513 11.3564C42.9678 13.493 42.8031 16.3106 44.1632 18.6662C45.5242 21.0237 48.0496 22.2899 50.5936 22.1581C51.0748 24.0249 51.3307 25.9824 51.3307 27.9995C51.3307 30.0167 51.0748 31.9741 50.5936 33.841C48.0496 33.7092 45.5242 34.9755 44.1632 37.3329C42.8031 39.6886 42.9678 42.5061 44.3513 44.6427C41.5692 47.3767 38.1047 49.4186 34.2367 50.4894C33.0789 48.2202 30.7197 46.6662 27.9974 46.6662C25.2751 46.6662 22.9159 48.2202 21.7581 50.4894C17.8901 49.4186 14.4257 47.3767 11.6436 44.6427C13.0269 42.5061 13.1916 39.6886 11.8316 37.3329C10.4705 34.9755 7.94524 33.7092 5.40128 33.841C4.92003 31.9741 4.66406 30.0167 4.66406 27.9995ZM15.873 34.9995C17.3433 37.5461 17.7647 40.4738 17.1898 43.2217C18.1413 43.8989 19.1542 44.4855 20.2155 44.9729C22.3082 43.0995 25.0555 41.9995 27.9974 41.9995C30.9393 41.9995 33.6865 43.0995 35.7793 44.9729C36.8405 44.4855 37.8534 43.8989 38.8049 43.2217C38.23 40.4738 38.6514 37.5461 40.1219 34.9995C41.5919 32.4532 43.9166 30.6245 46.5836 29.7484C46.637 29.1702 46.6641 28.5871 46.6641 27.9995C46.6641 27.4122 46.637 26.8289 46.5836 26.2509C43.9166 25.3748 41.5919 23.5461 40.1219 20.9996C38.6514 18.453 38.23 15.5255 38.8049 12.7774C37.8534 12.1004 36.8405 11.5138 35.7793 11.0262C33.6865 12.8997 30.9393 13.9996 27.9974 13.9996C25.0555 13.9996 22.3082 12.8997 20.2155 11.0262C19.1542 11.5138 18.1413 12.1004 17.1898 12.7774C17.7647 15.5255 17.3433 18.453 15.873 20.9996C14.4028 23.5461 12.0783 25.3748 9.41125 26.2509C9.35773 26.8289 9.33073 27.4122 9.33073 27.9995C9.33073 28.5871 9.35773 29.1702 9.41125 29.7484C12.0783 30.6245 14.4028 32.4532 15.873 34.9995ZM27.9974 34.9995C24.1313 34.9995 20.9974 31.8656 20.9974 27.9995C20.9974 24.1337 24.1313 20.9996 27.9974 20.9996C31.8635 20.9996 34.9974 24.1337 34.9974 27.9995C34.9974 31.8656 31.8635 34.9995 27.9974 34.9995ZM27.9974 30.3329C29.2861 30.3329 30.3307 29.2882 30.3307 27.9995C30.3307 26.7108 29.2861 25.6662 27.9974 25.6662C26.7087 25.6662 25.6641 26.7108 25.6641 27.9995C25.6641 29.2882 26.7087 30.3329 27.9974 30.3329Z" fill="#183165"/>
</g>
</svg>
