<svg width="56" height="56" viewBox="0 0 56 56" fill="none" xmlns="http://www.w3.org/2000/svg">
<g id="Frame">
<path id="Vector" d="M46.8435 10.2336C46.4496 9.78656 45.8947 9.51385 45.3001 9.47518C45.0067 9.45335 44.7118 9.48925 44.4321 9.58086L33.7758 13.2149C33.2106 13.4076 32.745 13.817 32.4817 14.353C32.2183 14.889 32.1786 15.5077 32.3714 16.0729C32.5641 16.6382 32.9735 17.1037 33.5095 17.3671C34.0455 17.6305 34.6642 17.6702 35.2294 17.4774L40.7494 15.595L32.8985 31.5716L23.4882 26.9296C23.2219 26.7974 22.9321 26.7192 22.6355 26.6996C22.3389 26.6799 22.0413 26.7192 21.76 26.8152C21.4786 26.9111 21.219 27.0618 20.9962 27.2586C20.7734 27.4554 20.5918 27.6943 20.4618 27.9616L12.035 45.11C11.9028 45.3763 11.8246 45.6661 11.805 45.9627C11.7854 46.2593 11.8247 46.5569 11.9206 46.8382C12.0166 47.1196 12.1673 47.3791 12.364 47.6019C12.5608 47.8248 12.7997 48.0064 13.0671 48.1364C13.3333 48.2686 13.6231 48.3468 13.9197 48.3664C14.2163 48.386 14.5139 48.3468 14.7952 48.2508C15.0766 48.1549 15.3362 48.0042 15.559 47.8074C15.7818 47.6106 15.9634 47.3717 16.0935 47.1044L23.5158 31.9639L32.9261 36.6059C33.1923 36.7381 33.4821 36.8162 33.7787 36.8359C34.0753 36.8555 34.3729 36.8162 34.6543 36.7203C34.9356 36.6243 35.1952 36.4736 35.418 36.2768C35.6408 36.0801 35.8225 35.8411 35.9525 35.5738L44.7793 17.5753L46.6617 23.0952C46.8544 23.6605 47.2638 24.126 47.7998 24.3894C48.3358 24.6528 48.9545 24.6925 49.5197 24.4997C50.085 24.3069 50.5505 23.8975 50.8139 23.3615C51.0773 22.8255 51.117 22.2069 50.9242 21.6416L47.2902 10.9853C47.1918 10.708 47.0401 10.4526 46.8435 10.2336Z" fill="#003E78"/>
</g>
</svg>
