<svg width="46" height="45" viewBox="0 0 46 45" fill="none" xmlns="http://www.w3.org/2000/svg">
<g id="Frame">
<path id="Vector" d="M23 41.25C12.6447 41.25 4.25 32.8552 4.25 22.5C4.25 12.1447 12.6447 3.75 23 3.75C33.3552 3.75 41.75 12.1447 41.75 22.5C41.75 32.8552 33.3552 41.25 23 41.25ZM23 37.5C31.2843 37.5 38 30.7843 38 22.5C38 14.2157 31.2843 7.5 23 7.5C14.7157 7.5 8 14.2157 8 22.5C8 30.7843 14.7157 37.5 23 37.5ZM21.125 28.125H24.875V31.875H21.125V28.125ZM21.125 13.125H24.875V24.375H21.125V13.125Z" fill="#F39C12"/>
</g>
</svg>
