<svg width="46" height="45" viewBox="0 0 46 45" fill="none" xmlns="http://www.w3.org/2000/svg">
<g id="Frame">
<path id="Vector" d="M19.2627 3.94414C16.6348 3.09343 13.778 4.27674 12.5212 6.73656L11.0104 9.69375C10.8309 10.0451 10.5451 10.3309 10.1937 10.5104L7.23656 12.0212C4.77674 13.278 3.59343 16.1348 4.44414 18.7627L5.46688 21.9221C5.58838 22.2974 5.58838 22.7017 5.46688 23.0771L4.44414 26.2364C3.59343 28.8644 4.77674 31.7212 7.23656 32.978L10.1937 34.4887C10.5451 34.6683 10.8309 34.9541 11.0104 35.3054L12.5212 38.2627C13.778 40.7225 16.6348 41.9058 19.2627 41.0551L22.4221 40.0323C22.7974 39.9108 23.2017 39.9108 23.5771 40.0323L26.7364 41.0551C29.3644 41.9058 32.2212 40.7225 33.478 38.2627L34.9887 35.3054C35.1683 34.9541 35.4541 34.6683 35.8054 34.4887L38.7627 32.978C41.2225 31.7212 42.4058 28.8644 41.5551 26.2364L40.5323 23.0771C40.4108 22.7017 40.4108 22.2974 40.5323 21.9221L41.5551 18.7627C42.4058 16.1348 41.2225 13.278 38.7627 12.0212L35.8054 10.5104C35.4541 10.3309 35.1683 10.0451 34.9887 9.69375L33.478 6.73656C32.2212 4.27674 29.3644 3.09343 26.7364 3.94414L23.5771 4.96688C23.2017 5.08838 22.7974 5.08839 22.4221 4.96688L19.2627 3.94414ZM15.8607 8.44267C16.2796 7.62274 17.2318 7.22829 18.1078 7.51187L21.2673 8.53459C22.3934 8.89914 23.6058 8.89914 24.7319 8.53459L27.8914 7.51187C28.7673 7.22829 29.7196 7.62274 30.1384 8.44266L31.6493 11.3999C32.1878 12.454 33.0453 13.3113 34.0994 13.8498L37.0564 15.3607C37.8764 15.7796 38.2709 16.7318 37.9874 17.6078L36.9646 20.7673C36.6001 21.8934 36.6001 23.1058 36.9646 24.2319L37.9874 27.3914C38.2709 28.2673 37.8764 29.2196 37.0564 29.6384L34.0994 31.1493C33.0453 31.6878 32.1878 32.5453 31.6493 33.5994L30.1384 36.5564C29.7196 37.3764 28.7673 37.7709 27.8914 37.4874L24.7319 36.4646C23.6058 36.1001 22.3934 36.1001 21.2673 36.4646L18.1078 37.4874C17.2318 37.7709 16.2796 37.3764 15.8607 36.5564L14.3498 33.5994C13.8113 32.5453 12.954 31.6878 11.8999 31.1493L8.94267 29.6384C8.12274 29.2196 7.72829 28.2673 8.01187 27.3914L9.03459 24.2319C9.39914 23.1058 9.39914 21.8934 9.03459 20.7673L8.01187 17.6078C7.72829 16.7318 8.12274 15.7796 8.94267 15.3607L11.8999 13.8498C12.954 13.3113 13.8113 12.454 14.3498 11.3999L15.8607 8.44267ZM13.1738 22.0447L21.1287 29.9996L34.387 16.7414L31.7354 14.0897L21.1287 24.6963L15.8255 19.3929L13.1738 22.0447Z" fill="#F39C12"/>
</g>
</svg>
