<svg width="43" height="42" viewBox="0 0 43 42" fill="none" xmlns="http://www.w3.org/2000/svg">
<g id="Frame">
<path id="Vector" d="M7.5 3.5H35.5C36.4665 3.5 37.25 4.28351 37.25 5.25V36.75C37.25 37.7165 36.4665 38.5 35.5 38.5H7.5C6.53351 38.5 5.75 37.7165 5.75 36.75V5.25C5.75 4.28351 6.53351 3.5 7.5 3.5ZM9.25 7V35H33.75V7H9.25ZM12.75 10.5H30.25V17.5H12.75V10.5ZM12.75 21H16.25V24.5H12.75V21ZM12.75 28H16.25V31.5H12.75V28ZM19.75 21H23.25V24.5H19.75V21ZM19.75 28H23.25V31.5H19.75V28ZM26.75 21H30.25V31.5H26.75V21Z" fill="#F39C12"/>
</g>
</svg>
