<svg width="43" height="42" viewBox="0 0 43 42" fill="none" xmlns="http://www.w3.org/2000/svg">
<g id="Frame">
<path id="Vector" d="M16.25 1.75V5.25H26.75V1.75H30.25V5.25H37.25C38.2165 5.25 39 6.03351 39 7V35C39 35.9665 38.2165 36.75 37.25 36.75H5.75C4.78351 36.75 4 35.9665 4 35V7C4 6.03351 4.78351 5.25 5.75 5.25H12.75V1.75H16.25ZM35.5 17.5H7.5V33.25H35.5V17.5ZM26.8121 19.488L29.287 21.963L20.625 30.625L14.4378 24.4379L16.9127 21.963L20.625 25.6753L26.8121 19.488ZM12.75 8.75H7.5V14H35.5V8.75H30.25V10.5H26.75V8.75H16.25V10.5H12.75V8.75Z" fill="#F39C12"/>
</g>
</svg>
