<svg width="44" height="43" viewBox="0 0 44 43" fill="none" xmlns="http://www.w3.org/2000/svg">
<g id="Frame">
<path id="Vector" d="M5.87565 5.375H38.1257C39.1152 5.375 39.9173 6.17716 39.9173 7.16667V35.8333C39.9173 36.8229 39.1152 37.625 38.1257 37.625H5.87565C4.88615 37.625 4.08398 36.8229 4.08398 35.8333V7.16667C4.08398 6.17716 4.88615 5.375 5.87565 5.375ZM7.66732 8.95833V34.0417H36.334V8.95833H7.66732ZM30.7798 23.2917C29.9497 27.3806 26.3347 30.4583 22.0007 30.4583C17.0531 30.4583 13.0423 26.4475 13.0423 21.5C13.0423 17.166 16.12 13.5509 20.209 12.7209V23.2917H30.7798ZM30.7798 19.7083H23.7923V12.7209C27.3024 13.4334 30.0673 16.1982 30.7798 19.7083Z" fill="#F39C12"/>
</g>
</svg>
