<svg width="46" height="45" viewBox="0 0 46 45" fill="none" xmlns="http://www.w3.org/2000/svg">
<g id="Frame">
<path id="Vector" d="M17.375 4.60837V8.59035C11.8778 10.8155 8 16.2049 8 22.5C8 30.7843 14.7157 37.5 23 37.5C29.2951 37.5 34.6844 33.6221 36.9097 28.125H40.8916C38.5023 35.7321 31.3955 41.25 23 41.25C12.6447 41.25 4.25 32.8552 4.25 22.5C4.25 14.1044 9.76792 6.99763 17.375 4.60837ZM23 3.75C33.3552 3.75 41.75 12.1447 41.75 22.5C41.75 23.1328 41.7187 23.7583 41.6574 24.375H21.125V3.84259C21.7417 3.78135 22.3672 3.75 23 3.75ZM24.875 7.61604V20.625H37.8839C37.0379 13.8399 31.6601 8.46214 24.875 7.61604Z" fill="#F39C12"/>
</g>
</svg>
