<svg width="46" height="45" viewBox="0 0 46 45" fill="none" xmlns="http://www.w3.org/2000/svg">
<g id="Frame">
<path id="Vector" d="M20.1875 31.875H8V28.125H20.1875C23.8119 28.125 26.75 31.0631 26.75 34.6875C26.75 38.3119 23.8119 41.25 20.1875 41.25C17.3742 41.25 14.9744 39.4798 14.0412 36.9924L17.5534 35.6753C17.9533 36.7414 18.9818 37.5 20.1875 37.5C21.7408 37.5 23 36.2408 23 34.6875C23 33.1343 21.7408 31.875 20.1875 31.875ZM9.875 20.625H35.1875C38.8119 20.625 41.75 23.5631 41.75 27.1875C41.75 30.8119 38.8119 33.75 35.1875 33.75C32.3743 33.75 29.9744 31.9798 29.0413 29.4924L32.5533 28.1753C32.9533 29.2414 33.9819 30 35.1875 30C36.7408 30 38 28.7408 38 27.1875C38 25.6343 36.7408 24.375 35.1875 24.375H9.875C6.76841 24.375 4.25 21.8567 4.25 18.75C4.25 15.6434 6.76841 13.125 9.875 13.125H25.8125C27.3658 13.125 28.625 11.8658 28.625 10.3125C28.625 8.75919 27.3658 7.5 25.8125 7.5C24.6069 7.5 23.5783 8.25868 23.1783 9.32469L19.6663 8.00762C20.5994 5.52026 22.9993 3.75 25.8125 3.75C29.4369 3.75 32.375 6.68813 32.375 10.3125C32.375 13.9369 29.4369 16.875 25.8125 16.875H9.875C8.83948 16.875 8 17.7145 8 18.75C8 19.7856 8.83948 20.625 9.875 20.625Z" fill="#F39C12"/>
</g>
</svg>
