<svg width="46" height="45" viewBox="0 0 46 45" fill="none" xmlns="http://www.w3.org/2000/svg">
<g id="Frame">
<path id="Vector" d="M17.4348 22.4993L11.75 18.4866V26.5122L17.4348 22.4993ZM9.47814 32.7059C9.31996 32.8176 9.13111 32.8776 8.9375 32.8776C8.41974 32.8776 8 32.4578 8 31.9401V13.0587C8 12.8651 8.05994 12.6762 8.1716 12.518C8.47017 12.095 9.05514 11.9942 9.47814 12.2928L22.8524 21.7334C22.9398 21.7951 23.0161 21.8714 23.0778 21.9588C23.3763 22.3818 23.2754 22.9668 22.8524 23.2653L9.47814 32.7059ZM28.625 26.5122L34.3098 22.4993L28.625 18.4866V26.5122ZM24.875 13.0587C24.875 12.8651 24.935 12.6762 25.0466 12.518C25.3453 12.095 25.9301 11.9942 26.3531 12.2928L39.7274 21.7334C39.8148 21.7951 39.8911 21.8714 39.9528 21.9588C40.2513 22.3818 40.1504 22.9668 39.7274 23.2653L26.3531 32.7059C26.195 32.8176 26.0062 32.8776 25.8125 32.8776C25.2948 32.8776 24.875 32.4578 24.875 31.9401V13.0587Z" fill="#F39C12"/>
</g>
</svg>
