<svg width="46" height="45" viewBox="0 0 46 45" fill="none" xmlns="http://www.w3.org/2000/svg">
<g id="Frame">
<path id="Vector" d="M11.75 7.5H8V3.75H38V7.5H34.25V11.25C34.25 14.2789 32.7196 16.715 30.7927 18.7063C29.4747 20.0681 27.8712 21.3225 26.2454 22.5C27.8712 23.6775 29.4747 24.9319 30.7927 26.2937C32.7196 28.2849 34.25 30.7211 34.25 33.75V37.5H38V41.25H8V37.5H11.75V33.75C11.75 30.7211 13.2803 28.2849 15.2073 26.2937C16.5253 24.9319 18.1288 23.6775 19.7546 22.5C18.1288 21.3225 16.5253 20.0681 15.2073 18.7063C13.2803 16.715 11.75 14.2789 11.75 11.25V7.5ZM15.5 7.5V11.25C15.5 12.5346 15.988 13.7531 16.9462 15H29.0538C30.0119 13.7531 30.5 12.5346 30.5 11.25V7.5H15.5ZM23 24.7911C21.0402 26.1754 19.265 27.4931 17.9021 28.9016C17.5439 29.2718 17.2251 29.637 16.9462 30H29.0538C28.7748 29.637 28.4561 29.2718 28.0979 28.9016C26.735 27.4931 24.9597 26.1754 23 24.7911Z" fill="#F39C12"/>
</g>
</svg>
