<svg width="57" height="56" viewBox="0 0 57 56" fill="none" xmlns="http://www.w3.org/2000/svg">
<g id="Frame">
<path id="Vector" d="M47.3435 10.2336C46.9496 9.78653 46.3947 9.51382 45.8001 9.47515C45.5067 9.45332 45.2118 9.48922 44.9321 9.58083L34.2758 13.2148C33.7106 13.4076 33.245 13.817 32.9817 14.353C32.7183 14.889 32.6786 15.5077 32.8714 16.0729C33.0641 16.6382 33.4735 17.1037 34.0095 17.3671C34.5455 17.6304 35.1642 17.6701 35.7294 17.4774L41.2494 15.5949L33.3985 31.5715L23.9882 26.9295C23.7219 26.7973 23.4321 26.7192 23.1355 26.6995C22.8389 26.6799 22.5413 26.7192 22.26 26.8151C21.9786 26.9111 21.719 27.0618 21.4962 27.2586C21.2734 27.4553 21.0918 27.6943 20.9618 27.9616L12.535 45.11C12.4028 45.3762 12.3246 45.666 12.305 45.9626C12.2854 46.2593 12.3247 46.5568 12.4206 46.8382C12.5166 47.1195 12.6673 47.3791 12.864 47.6019C13.0608 47.8247 13.2997 48.0064 13.5671 48.1364C13.8333 48.2686 14.1231 48.3468 14.4197 48.3664C14.7163 48.386 15.0139 48.3467 15.2952 48.2508C15.5766 48.1548 15.8362 48.0041 16.059 47.8074C16.2818 47.6106 16.4634 47.3716 16.5935 47.1043L24.0158 31.9638L33.4261 36.6058C33.6923 36.738 33.9821 36.8162 34.2787 36.8358C34.5753 36.8555 34.8729 36.8162 35.1543 36.7202C35.4356 36.6243 35.6952 36.4736 35.918 36.2768C36.1408 36.08 36.3225 35.8411 36.4525 35.5738L45.2793 17.5752L47.1617 23.0952C47.3544 23.6605 47.7638 24.126 48.2998 24.3894C48.8358 24.6527 49.4545 24.6924 50.0197 24.4997C50.585 24.3069 51.0505 23.8975 51.3139 23.3615C51.5773 22.8255 51.617 22.2068 51.4242 21.6416L47.7902 10.9853C47.6918 10.7079 47.5401 10.4525 47.3435 10.2336Z" fill="#F39C12"/>
</g>
</svg>
