<svg width="46" height="45" viewBox="0 0 46 45" fill="none" xmlns="http://www.w3.org/2000/svg">
<g id="Frame">
<path id="Vector" d="M11.75 40.3124C8.12563 40.3124 5.1875 37.3743 5.1875 33.7499C5.1875 30.1256 8.12563 27.1874 11.75 27.1874C14.7223 27.1874 17.233 29.1633 18.0403 31.8733L28.625 31.8736V28.1249L32.375 28.1236V17.3312L28.1694 13.1237H17.375V16.8749H6.125V5.62487H17.375V9.37367H28.1694L34.25 3.29492L42.2049 11.2499L36.125 17.3274V28.1236L39.875 28.1249V39.3749H28.625V35.6236L18.0406 35.6253C17.2337 38.3358 14.7227 40.3124 11.75 40.3124ZM11.75 30.9374C10.1967 30.9374 8.9375 32.1965 8.9375 33.7499C8.9375 35.3032 10.1967 36.5624 11.75 36.5624C13.3033 36.5624 14.5625 35.3032 14.5625 33.7499C14.5625 32.1965 13.3033 30.9374 11.75 30.9374ZM36.125 31.8749H32.375V35.6249H36.125V31.8749ZM34.25 8.59823L31.5984 11.2499L34.25 13.9015L36.9016 11.2499L34.25 8.59823ZM13.625 9.37487H9.875V13.1249H13.625V9.37487Z" fill="#F39C12"/>
</g>
</svg>
