<svg width="43" height="43" viewBox="0 0 43 43" fill="none" xmlns="http://www.w3.org/2000/svg">
<g id="Frame">
<path id="Vector" d="M5.37565 5.375H37.6257C38.6152 5.375 39.4173 6.17716 39.4173 7.16667V35.8333C39.4173 36.8229 38.6152 37.625 37.6257 37.625H5.37565C4.38615 37.625 3.58398 36.8229 3.58398 35.8333V7.16667C3.58398 6.17716 4.38615 5.375 5.37565 5.375ZM7.16732 8.95833V34.0417H35.834V8.95833H7.16732ZM30.2798 23.2917C29.4497 27.3806 25.8347 30.4583 21.5007 30.4583C16.5531 30.4583 12.5423 26.4475 12.5423 21.5C12.5423 17.166 15.62 13.5509 19.709 12.7209V23.2917H30.2798ZM30.2798 19.7083H23.2923V12.7209C26.8024 13.4334 29.5673 16.1982 30.2798 19.7083Z" fill="#F39C12"/>
</g>
</svg>
