<svg width="45" height="45" viewBox="0 0 45 45" fill="none" xmlns="http://www.w3.org/2000/svg">
<g id="Frame">
<path id="Vector" d="M37.5 41.25H7.5C6.46447 41.25 5.625 40.4106 5.625 39.375V5.625C5.625 4.58947 6.46447 3.75 7.5 3.75H37.5C38.5356 3.75 39.375 4.58947 39.375 5.625V39.375C39.375 40.4106 38.5356 41.25 37.5 41.25ZM35.625 37.5V7.5H9.375V37.5H35.625ZM13.125 11.25H20.625V18.75H13.125V11.25ZM13.125 22.5H31.875V26.25H13.125V22.5ZM13.125 30H31.875V33.75H13.125V30ZM24.375 13.125H31.875V16.875H24.375V13.125Z" fill="#F39C12"/>
</g>
</svg>
