<svg width="45" height="45" viewBox="0 0 45 45" fill="none" xmlns="http://www.w3.org/2000/svg">
<g id="Frame">
<path id="Vector" d="M16.875 4.60837V8.59035C11.3778 10.8155 7.5 16.2049 7.5 22.5C7.5 30.7843 14.2157 37.5 22.5 37.5C28.7951 37.5 34.1844 33.6221 36.4097 28.125H40.3916C38.0023 35.7321 30.8955 41.25 22.5 41.25C12.1447 41.25 3.75 32.8552 3.75 22.5C3.75 14.1044 9.26792 6.99763 16.875 4.60837ZM22.5 3.75C32.8552 3.75 41.25 12.1447 41.25 22.5C41.25 23.1328 41.2187 23.7583 41.1574 24.375H20.625V3.84259C21.2417 3.78135 21.8672 3.75 22.5 3.75ZM24.375 7.61604V20.625H37.3839C36.5379 13.8399 31.1601 8.46214 24.375 7.61604Z" fill="#F39C12"/>
</g>
</svg>
