<svg width="45" height="45" viewBox="0 0 45 45" fill="none" xmlns="http://www.w3.org/2000/svg">
<g id="Frame">
<path id="Vector" d="M11.25 7.5H7.5V3.75H37.5V7.5H33.75V11.25C33.75 14.2789 32.2196 16.715 30.2927 18.7063C28.9747 20.0681 27.3712 21.3225 25.7454 22.5C27.3712 23.6775 28.9747 24.9319 30.2927 26.2937C32.2196 28.2849 33.75 30.7211 33.75 33.75V37.5H37.5V41.25H7.5V37.5H11.25V33.75C11.25 30.7211 12.7803 28.2849 14.7073 26.2937C16.0253 24.9319 17.6288 23.6775 19.2546 22.5C17.6288 21.3225 16.0253 20.0681 14.7073 18.7063C12.7803 16.715 11.25 14.2789 11.25 11.25V7.5ZM15 7.5V11.25C15 12.5346 15.488 13.7531 16.4462 15H28.5538C29.5119 13.7531 30 12.5346 30 11.25V7.5H15ZM22.5 24.7911C20.5402 26.1754 18.765 27.4931 17.4021 28.9016C17.0439 29.2718 16.7251 29.637 16.4462 30H28.5538C28.2748 29.637 27.9561 29.2718 27.5979 28.9016C26.235 27.4931 24.4597 26.1754 22.5 24.7911Z" fill="#F39C12"/>
</g>
</svg>
