<svg width="60" height="50" viewBox="0 0 72 63" fill="none" xmlns="http://www.w3.org/2000/svg">
<g clip-path="url(#clip0_231_880)">
<path d="M37.0799 26.0689V38.0172C40.5359 39.7551 45.7199 34.3965 47.8798 31.5L43.9198 31.862L52.5598 26.0689L51.8398 35.4827L50.7598 33.6724C48.7438 36.8586 44.6398 39.8276 42.8398 40.9138C40.5358 41.7827 36.8398 44.6552 35.2798 45.9827C34.9918 45.1138 28.9198 41.0345 25.9198 39.1034C24.7678 38.5241 21.5998 34.7586 20.1598 32.9483L18.7198 35.4827V26.0689L26.2798 31.862H23.3998L24.1198 32.9483C27.8638 37.5827 31.9198 38.2586 33.4798 38.0172V26.0689C33.4798 22.8827 30.5998 20.1551 29.1598 19.1896L2.87985 2.89653C1.72785 6.08273 3.8399 9.77584 5.03993 11.2241C2.73593 13.831 4.55991 17.6206 5.7599 19.1896C5.1839 24.1138 8.63988 27.5172 10.4399 28.6034C12.4559 37.0034 21.8399 41.7586 26.2799 43.0862C28.8719 43.9551 33.8399 46.8276 35.9999 48.1551C37.4399 46.1276 42.3599 43.931 44.6399 43.0862C57.0239 39.9 60.8399 32.1034 61.1999 28.6034C65.8079 26.2862 66.2399 20.6379 65.8799 18.1034C68.1839 13.1793 66.8399 11.4655 65.8799 11.2241C69.9119 8.32756 68.9999 3.2586 68.0399 1.08618L41.7599 19.1896C37.4399 21.2172 36.8399 24.6207 37.0799 26.0689Z" fill="#39B1FF" stroke="#31B5FD"/>
<path d="M0.31543 51.5693V50.6896H4.91105V51.5693H3.13075V56.4827H2.09575V51.5693H0.31543ZM5.79699 56.4827V50.6896H6.84043V53.142H9.50947V50.6896H10.5558V56.4827H9.50947V54.0218H6.84043V56.4827H5.79699ZM11.6906 56.4827V50.6896H15.4369V51.5693H12.734V53.142H15.2428V54.0218H12.734V55.603H15.4593V56.4827H11.6906ZM21.6482 53.5861C21.6482 54.2103 21.532 54.745 21.2995 55.1899C21.0689 55.6331 20.7539 55.9726 20.3545 56.2083C19.957 56.444 19.506 56.5619 19.0017 56.5619C18.4973 56.5619 18.0454 56.444 17.646 56.2083C17.2485 55.9707 16.9335 55.6303 16.701 55.1871C16.4704 54.7421 16.3551 54.2084 16.3551 53.5861C16.3551 52.9619 16.4704 52.4282 16.701 51.9851C16.9335 51.5401 17.2485 51.1997 17.646 50.9639C18.0454 50.7282 18.4973 50.6104 19.0017 50.6104C19.506 50.6104 19.957 50.7282 20.3545 50.9639C20.7539 51.1997 21.0689 51.5401 21.2995 51.9851C21.532 52.4282 21.6482 52.9619 21.6482 53.5861ZM20.5992 53.5861C20.5992 53.1467 20.5307 52.7762 20.3939 52.4744C20.2589 52.1709 20.0714 51.9418 19.8314 51.7871C19.5913 51.6306 19.3148 51.5523 19.0017 51.5523C18.6885 51.5523 18.412 51.6306 18.172 51.7871C17.932 51.9418 17.7435 52.1709 17.6067 52.4744C17.4717 52.7762 17.4042 53.1467 17.4042 53.5861C17.4042 54.0255 17.4717 54.397 17.6067 54.7006C17.7435 55.0023 17.932 55.2314 18.172 55.388C18.412 55.5426 18.6885 55.6199 19.0017 55.6199C19.3148 55.6199 19.5913 55.5426 19.8314 55.388C20.0714 55.2314 20.2589 55.0023 20.3939 54.7006C20.5307 54.397 20.5992 54.0255 20.5992 53.5861ZM27.5651 52.6442H26.5131C26.4832 52.4707 26.4279 52.317 26.3472 52.1831C26.2666 52.0473 26.1663 51.9323 26.0463 51.838C25.9263 51.7437 25.7894 51.673 25.6357 51.6259C25.4838 51.5769 25.3197 51.5523 25.1435 51.5523C24.8303 51.5523 24.5529 51.6315 24.3109 51.7899C24.0691 51.9465 23.8797 52.1765 23.7429 52.4801C23.606 52.7818 23.5375 53.1505 23.5375 53.5861C23.5375 54.0293 23.606 54.4027 23.7429 54.7063C23.8816 55.008 24.071 55.2361 24.3109 55.3908C24.5529 55.5435 24.8294 55.6199 25.1407 55.6199C25.3132 55.6199 25.4744 55.5973 25.6244 55.552C25.7763 55.5049 25.9122 55.4361 26.0322 55.3456C26.1541 55.255 26.2563 55.1437 26.3388 55.0117C26.4231 54.8798 26.4813 54.7289 26.5131 54.5591L27.5651 54.5649C27.5257 54.8402 27.4404 55.0985 27.3091 55.3399C27.1797 55.5813 27.01 55.7944 26.8001 55.9792C26.59 56.1621 26.3444 56.3054 26.0631 56.4091C25.7819 56.511 25.4697 56.5619 25.1266 56.5619C24.6203 56.5619 24.1685 56.444 23.7709 56.2083C23.3735 55.9726 23.0604 55.6322 22.8316 55.1871C22.6029 54.7421 22.4885 54.2084 22.4885 53.5861C22.4885 52.9619 22.6038 52.4282 22.8344 51.9851C23.0651 51.5401 23.3791 51.1997 23.7766 50.9639C24.1741 50.7282 24.6241 50.6104 25.1266 50.6104C25.4472 50.6104 25.7453 50.6556 26.0209 50.7461C26.2966 50.8366 26.5422 50.9696 26.7579 51.145C26.9735 51.3185 27.1507 51.5316 27.2894 51.7843C27.4301 52.0351 27.5219 52.3217 27.5651 52.6442ZM28.5206 56.4827V50.6896H32.2669V51.5693H29.564V53.142H32.0728V54.0218H29.564V55.603H32.2893V56.4827H28.5206ZM34.071 56.4827H32.9573L34.9851 50.6896H36.2732L38.3039 56.4827H37.1901L35.6517 51.8776H35.6067L34.071 56.4827ZM34.1076 54.2113H37.1451V55.0542H34.1076V54.2113ZM43.7959 50.6896V56.4827H42.8679L40.1538 52.5367H40.1059V56.4827H39.0625V50.6896H39.9963L42.7075 54.6384H42.7581V50.6896H43.7959ZM49.6664 50.6896V56.4827H48.7382L46.0242 52.5367H45.9764V56.4827H44.9329V50.6896H45.8667L48.578 54.6384H48.6286V50.6896H49.6664ZM51.3855 56.5449C51.2149 56.5449 51.0687 56.4846 50.9468 56.3638C50.8249 56.2432 50.7649 56.0961 50.7668 55.9226C50.7649 55.7529 50.8249 55.6077 50.9468 55.487C51.0687 55.3663 51.2149 55.306 51.3855 55.306C51.5505 55.306 51.6939 55.3663 51.8158 55.487C51.9396 55.6077 52.0024 55.7529 52.0042 55.9226C52.0024 56.0376 51.9724 56.1423 51.9142 56.2366C51.858 56.3309 51.783 56.4063 51.6892 56.4629C51.5974 56.5176 51.4961 56.5449 51.3855 56.5449ZM58.0308 52.6442H56.9789C56.9489 52.4707 56.8935 52.317 56.813 52.1831C56.7323 52.0473 56.632 51.9323 56.512 51.838C56.392 51.7437 56.2551 51.673 56.1014 51.6259C55.9495 51.5769 55.7855 51.5523 55.6092 51.5523C55.2961 51.5523 55.0186 51.6315 54.7767 51.7899C54.5348 51.9465 54.3455 52.1765 54.2086 52.4801C54.0717 52.7818 54.0032 53.1505 54.0032 53.5861C54.0032 54.0293 54.0717 54.4027 54.2086 54.7063C54.3473 55.008 54.5367 55.2361 54.7767 55.3908C55.0186 55.5435 55.2951 55.6199 55.6064 55.6199C55.7789 55.6199 55.9401 55.5973 56.0901 55.552C56.242 55.5049 56.3779 55.4361 56.498 55.3456C56.6198 55.255 56.722 55.1437 56.8045 55.0117C56.8889 54.8798 56.947 54.7289 56.9789 54.5591L58.0308 54.5649C57.9914 54.8402 57.9061 55.0985 57.7748 55.3399C57.6454 55.5813 57.4757 55.7944 57.2658 55.9792C57.0558 56.1621 56.8101 56.3054 56.5289 56.4091C56.2476 56.511 55.9354 56.5619 55.5923 56.5619C55.086 56.5619 54.6342 56.444 54.2367 56.2083C53.8392 55.9726 53.526 55.6322 53.2973 55.1871C53.0685 54.7421 52.9542 54.2084 52.9542 53.5861C52.9542 52.9619 53.0695 52.4282 53.3001 51.9851C53.5308 51.5401 53.8448 51.1997 54.2423 50.9639C54.6398 50.7282 55.0898 50.6104 55.5923 50.6104C55.913 50.6104 56.211 50.6556 56.4867 50.7461C56.7623 50.8366 57.0079 50.9696 57.2236 51.145C57.4392 51.3185 57.6163 51.5316 57.7551 51.7843C57.8958 52.0351 57.9876 52.3217 58.0308 52.6442ZM64.1331 53.5861C64.1331 54.2103 64.0169 54.745 63.7844 55.1899C63.5538 55.6331 63.2388 55.9726 62.8394 56.2083C62.4419 56.444 61.991 56.5619 61.4866 56.5619C60.9822 56.5619 60.5303 56.444 60.1309 56.2083C59.7335 55.9707 59.4185 55.6303 59.1859 55.1871C58.9553 54.7421 58.8401 54.2084 58.8401 53.5861C58.8401 52.9619 58.9553 52.4282 59.1859 51.9851C59.4185 51.5401 59.7335 51.1997 60.1309 50.9639C60.5303 50.7282 60.9822 50.6104 61.4866 50.6104C61.991 50.6104 62.4419 50.7282 62.8394 50.9639C63.2388 51.1997 63.5538 51.5401 63.7844 51.9851C64.0169 52.4282 64.1331 52.9619 64.1331 53.5861ZM63.0841 53.5861C63.0841 53.1467 63.0157 52.7762 62.8788 52.4744C62.7438 52.1709 62.5563 51.9418 62.3163 51.7871C62.0763 51.6306 61.7998 51.5523 61.4866 51.5523C61.1735 51.5523 60.897 51.6306 60.6569 51.7871C60.4169 51.9418 60.2285 52.1709 60.0916 52.4744C59.9566 52.7762 59.8891 53.1467 59.8891 53.5861C59.8891 54.0255 59.9566 54.397 60.0916 54.7006C60.2285 55.0023 60.4169 55.2314 60.6569 55.388C60.897 55.5426 61.1735 55.6199 61.4866 55.6199C61.7998 55.6199 62.0763 55.5426 62.3163 55.388C62.5563 55.2314 62.7438 55.0023 62.8788 54.7006C63.0157 54.397 63.0841 54.0255 63.0841 53.5861ZM65.1197 50.6896H66.3965L68.1065 54.8873H68.174L69.884 50.6896H71.1609V56.4827H70.1597V52.5027H70.1062L68.5143 56.4657H67.7662L66.1743 52.4943H66.1209V56.4827H65.1197V50.6896Z" fill="#33B4FF"/>
<path d="M6.07031 59.116H6.76679L7.69953 61.4056H7.73632L8.66908 59.116H9.36554V62.2758H8.81942V60.1049H8.79026L7.92194 62.2666H7.51391L6.64559 60.1003H6.61645V62.2758H6.07031V59.116ZM10.3888 62.2758H9.78126L10.8873 59.116H11.59L12.6976 62.2758H12.0901L11.2509 59.7639H11.2264L10.3888 62.2758ZM10.4087 61.0369H12.0655V61.4967H10.4087V61.0369ZM13.1114 62.2758V59.116H14.2896C14.531 59.116 14.7334 59.1581 14.8971 59.2425C15.0617 59.3269 15.186 59.4451 15.2699 59.5973C15.3548 59.7485 15.3972 59.925 15.3972 60.1266C15.3972 60.3292 15.3543 60.5051 15.2683 60.6543C15.1834 60.8024 15.0581 60.9171 14.8925 60.9983C14.7268 61.0785 14.5233 61.1187 14.2819 61.1187H13.4428V60.6434H14.2052C14.3464 60.6434 14.4619 60.6239 14.5519 60.5848C14.6419 60.5447 14.7084 60.4866 14.7514 60.4105C14.7953 60.3333 14.8173 60.2387 14.8173 60.1266C14.8173 60.0144 14.7953 59.9188 14.7514 59.8396C14.7074 59.7594 14.6404 59.6987 14.5504 59.6575C14.4604 59.6154 14.3443 59.5943 14.2021 59.5943H13.6806V62.2758H13.1114ZM14.7345 60.844L15.5122 62.2758H14.8771L14.1131 60.844H14.7345ZM16.4902 59.116V62.2758H15.9211V59.116H16.4902ZM16.9685 59.5958V59.116H19.4752V59.5958H18.5041V62.2758H17.9396V59.5958H16.9685ZM20.5276 59.116V62.2758H19.9585V59.116H20.5276ZM21.1439 59.116H21.8404L22.7731 61.4056H22.81L23.7426 59.116H24.4391V62.2758H23.893V60.1049H23.8638L22.9956 62.2666H22.5875L21.7192 60.1003H21.6901V62.2758H21.1439V59.116ZM25.0589 62.2758V59.116H27.1023V59.5958H25.628V60.4537H26.9965V60.9335H25.628V61.796H27.1146V62.2758H25.0589ZM29.3236 59.116V62.2758H28.7546V59.116H29.3236ZM31.6474 59.9846C31.6331 59.8499 31.5728 59.745 31.4664 59.6699C31.3611 59.5948 31.224 59.5572 31.0552 59.5572C30.9367 59.5572 30.8349 59.5752 30.75 59.6112C30.6651 59.6472 30.6001 59.6961 30.5551 59.7578C30.5101 59.8196 30.4872 59.89 30.4862 59.9692C30.4862 60.035 30.501 60.0921 30.5307 60.1404C30.5613 60.1888 30.6027 60.2299 30.6549 60.2639C30.7071 60.2968 30.7648 60.3246 30.8282 60.3472C30.8917 60.3698 30.9556 60.3889 31.02 60.4043L31.3145 60.4784C31.4332 60.5061 31.5472 60.5437 31.6567 60.591C31.7671 60.6383 31.8658 60.6979 31.9527 60.77C32.0407 60.842 32.1102 60.9289 32.1614 61.0307C32.2125 61.1326 32.2381 61.2518 32.2381 61.3887C32.2381 61.5738 32.191 61.7369 32.0969 61.8778C32.0028 62.0177 31.8668 62.1272 31.6888 62.2064C31.5119 62.2846 31.2977 62.3237 31.0461 62.3237C30.8017 62.3237 30.5894 62.2856 30.4094 62.2095C30.2305 62.1334 30.0903 62.0223 29.9891 61.8763C29.8888 61.7301 29.8346 61.5522 29.8265 61.3423H30.3864C30.3946 61.4524 30.4283 61.5439 30.4877 61.617C30.547 61.6901 30.6242 61.7445 30.7193 61.7806C30.8155 61.8166 30.9228 61.8345 31.0415 61.8345C31.1652 61.8345 31.2736 61.8161 31.3667 61.779C31.4608 61.741 31.5344 61.6885 31.5876 61.6217C31.6408 61.5537 31.6679 61.4746 31.6689 61.3841C31.6679 61.3017 31.6438 61.2339 31.5968 61.1804C31.5497 61.1258 31.4838 61.0806 31.3989 61.0446C31.315 61.0076 31.2169 60.9746 31.1044 60.9459L30.7469 60.8533C30.4882 60.7864 30.2836 60.6851 30.1333 60.5493C29.984 60.4125 29.9093 60.2309 29.9093 60.0046C29.9093 59.8185 29.9594 59.6555 30.0596 59.5156C30.1609 59.3757 30.2985 59.2672 30.4723 59.19C30.6462 59.1119 30.8431 59.0728 31.0629 59.0728C31.2859 59.0728 31.4813 59.1119 31.649 59.19C31.8177 59.2672 31.9501 59.3746 32.0463 59.5125C32.1424 59.6493 32.1921 59.8067 32.1951 59.9846H31.6474ZM36.6244 60.6959C36.6244 61.0364 36.561 61.328 36.4342 61.5707C36.3084 61.8125 36.1366 61.9976 35.9187 62.1262C35.7019 62.2548 35.456 62.3191 35.1808 62.3191C34.9057 62.3191 34.6593 62.2548 34.4414 62.1262C34.2246 61.9965 34.0528 61.8109 33.926 61.5691C33.8002 61.3264 33.7372 61.0353 33.7372 60.6959C33.7372 60.3554 33.8002 60.0643 33.926 59.8226C34.0528 59.5799 34.2246 59.3942 34.4414 59.2656C34.6593 59.1371 34.9057 59.0728 35.1808 59.0728C35.456 59.0728 35.7019 59.1371 35.9187 59.2656C36.1366 59.3942 36.3084 59.5799 36.4342 59.8226C36.561 60.0643 36.6244 60.3554 36.6244 60.6959ZM36.0522 60.6959C36.0522 60.4562 36.0149 60.2541 35.9402 60.0895C35.8666 59.9239 35.7643 59.7989 35.6334 59.7146C35.5025 59.6293 35.3516 59.5865 35.1808 59.5865C35.0101 59.5865 34.8592 59.6293 34.7283 59.7146C34.5974 59.7989 34.4946 59.9239 34.42 60.0895C34.3463 60.2541 34.3095 60.4562 34.3095 60.6959C34.3095 60.9355 34.3463 61.1382 34.42 61.3038C34.4946 61.4683 34.5974 61.5933 34.7283 61.6787C34.8592 61.7631 35.0101 61.8052 35.1808 61.8052C35.3516 61.8052 35.5025 61.7631 35.6334 61.6787C35.7643 61.5933 35.8666 61.4683 35.9402 61.3038C36.0149 61.1382 36.0522 60.9355 36.0522 60.6959ZM39.143 59.116H39.7122V61.1804C39.7122 61.4067 39.659 61.6057 39.5526 61.7775C39.4473 61.9492 39.299 62.0835 39.1077 62.1802C38.9165 62.2758 38.693 62.3237 38.4373 62.3237C38.1807 62.3237 37.9567 62.2758 37.7654 62.1802C37.5741 62.0835 37.4259 61.9492 37.3205 61.7775C37.2151 61.6057 37.1625 61.4067 37.1625 61.1804V59.116H37.7317V61.1326C37.7317 61.2642 37.7602 61.3814 37.8176 61.4843C37.8759 61.5872 37.9577 61.6679 38.063 61.7266C38.1683 61.7841 38.2931 61.813 38.4373 61.813C38.5816 61.813 38.7063 61.7841 38.8117 61.7266C38.918 61.6679 38.9998 61.5872 39.0571 61.4843C39.1144 61.3814 39.143 61.2642 39.143 61.1326V59.116ZM40.3308 62.2758V59.116H41.5089C41.7503 59.116 41.9528 59.1581 42.1165 59.2425C42.2811 59.3269 42.4054 59.4451 42.4893 59.5973C42.5741 59.7485 42.6166 59.925 42.6166 60.1266C42.6166 60.3292 42.5736 60.5051 42.4877 60.6543C42.4028 60.8024 42.2775 60.9171 42.1119 60.9983C41.9462 61.0785 41.7426 61.1187 41.5013 61.1187H40.6621V60.6434H41.4246C41.5657 60.6434 41.6813 60.6239 41.7713 60.5848C41.8613 60.5447 41.9277 60.4866 41.9707 60.4105C42.0147 60.3333 42.0367 60.2387 42.0367 60.1266C42.0367 60.0144 42.0147 59.9188 41.9707 59.8396C41.9267 59.7594 41.8598 59.6987 41.7698 59.6575C41.6798 59.6154 41.5636 59.5943 41.4215 59.5943H40.9V62.2758H40.3308ZM41.9538 60.844L42.7316 62.2758H42.0965L41.3325 60.844H41.9538ZM44.212 62.2758V59.116H44.7812V60.5678H44.8196L46.0453 59.116H46.7402L45.5252 60.5339L46.751 62.2758H46.0667L45.1294 60.9212L44.7812 61.3347V62.2758H44.212ZM47.7047 59.116V62.2758H47.1357V59.116H47.7047ZM50.903 59.116V62.2758H50.3968L48.9163 60.1235H48.8902V62.2758H48.3211V59.116H48.8304L50.3093 61.2699H50.3369V59.116H50.903ZM53.6279 60.125C53.6023 60.0417 53.5671 59.9671 53.5221 59.9013C53.4781 59.8345 53.4249 59.7773 53.3625 59.7301C53.3012 59.6827 53.2306 59.6472 53.1508 59.6236C53.071 59.5989 52.9841 59.5865 52.89 59.5865C52.7213 59.5865 52.5709 59.6293 52.439 59.7146C52.3071 59.8 52.2032 59.9255 52.1276 60.0911C52.0529 60.2556 52.0156 60.4562 52.0156 60.6928C52.0156 60.9315 52.0529 61.1336 52.1276 61.2992C52.2022 61.4648 52.306 61.5908 52.439 61.6772C52.5719 61.7626 52.7264 61.8052 52.9023 61.8052C53.0618 61.8052 53.1999 61.7744 53.3165 61.7127C53.4341 61.651 53.5246 61.5635 53.588 61.4504C53.6514 61.3362 53.6831 61.2025 53.6831 61.0492L53.812 61.0693H52.959V60.6218H54.2339V61.0014C54.2339 61.2719 54.1766 61.5059 54.0621 61.7034C53.9475 61.9009 53.79 62.0532 53.5895 62.1601C53.3891 62.2661 53.159 62.3191 52.8992 62.3191C52.6097 62.3191 52.3557 62.2537 52.1368 62.1231C51.9189 61.9914 51.7486 61.8047 51.6259 61.563C51.5042 61.3203 51.4433 61.0323 51.4433 60.699C51.4433 60.4439 51.4791 60.216 51.5508 60.0155C51.6233 59.8149 51.7246 59.6447 51.8545 59.5048C51.9844 59.3639 52.1368 59.2569 52.3117 59.1838C52.4866 59.1098 52.6768 59.0728 52.8823 59.0728C53.0562 59.0728 53.2183 59.0985 53.3686 59.1499C53.519 59.2003 53.6524 59.2723 53.769 59.3659C53.8867 59.4595 53.9833 59.5706 54.059 59.6992C54.1346 59.8277 54.1842 59.9697 54.2078 60.125H53.6279ZM55.8489 62.2758H54.7842V59.116H55.8703C56.1823 59.116 56.4502 59.1792 56.6742 59.3057C56.8992 59.4312 57.0721 59.6117 57.1928 59.8473C57.3134 60.0829 57.3738 60.3647 57.3738 60.6928C57.3738 61.022 57.3129 61.3048 57.1912 61.5414C57.0705 61.778 56.8961 61.9595 56.6681 62.086C56.441 62.2125 56.168 62.2758 55.8489 62.2758ZM55.3534 61.7806H55.8212C56.0401 61.7806 56.2227 61.7405 56.3689 61.6602C56.5152 61.5789 56.6251 61.4581 56.6988 61.2976C56.7724 61.1361 56.8092 60.9345 56.8092 60.6928C56.8092 60.4511 56.7724 60.2505 56.6988 60.0911C56.6251 59.9306 56.5162 59.8108 56.372 59.7316C56.2288 59.6513 56.0508 59.6112 55.8382 59.6112H55.3534V61.7806ZM60.7219 60.6959C60.7219 61.0364 60.6585 61.328 60.5317 61.5707C60.4059 61.8125 60.234 61.9976 60.0162 62.1262C59.7994 62.2548 59.5534 62.3191 59.2783 62.3191C59.0032 62.3191 58.7567 62.2548 58.5389 62.1262C58.3221 61.9965 58.1503 61.8109 58.0234 61.5691C57.8976 61.3264 57.8348 61.0353 57.8348 60.6959C57.8348 60.3554 57.8976 60.0643 58.0234 59.8226C58.1503 59.5799 58.3221 59.3942 58.5389 59.2656C58.7567 59.1371 59.0032 59.0728 59.2783 59.0728C59.5534 59.0728 59.7994 59.1371 60.0162 59.2656C60.234 59.3942 60.4059 59.5799 60.5317 59.8226C60.6585 60.0643 60.7219 60.3554 60.7219 60.6959ZM60.1497 60.6959C60.1497 60.4562 60.1124 60.2541 60.0377 60.0895C59.964 59.9239 59.8618 59.7989 59.7309 59.7146C59.6 59.6293 59.4491 59.5865 59.2783 59.5865C59.1075 59.5865 58.9567 59.6293 58.8258 59.7146C58.6949 59.7989 58.5921 59.9239 58.5174 60.0895C58.4438 60.2541 58.407 60.4562 58.407 60.6959C58.407 60.9355 58.4438 61.1382 58.5174 61.3038C58.5921 61.4683 58.6949 61.5933 58.8258 61.6787C58.9567 61.7631 59.1075 61.8052 59.2783 61.8052C59.4491 61.8052 59.6 61.7631 59.7309 61.6787C59.8618 61.5933 59.964 61.4683 60.0377 61.3038C60.1124 61.1382 60.1497 60.9355 60.1497 60.6959ZM61.26 59.116H61.9565L62.8892 61.4056H62.926L63.8587 59.116H64.5552V62.2758H64.0091V60.1049H63.9799L63.1117 62.2666H62.7036L61.8352 60.1003H61.8062V62.2758H61.26V59.116Z" fill="#34B4FD"/>
</g>
<defs>
<clipPath id="clip0_231_880">
<rect width="72" height="63" fill="white"/>
</clipPath>
</defs>
</svg>
