<svg width="100" height="87" viewBox="0 0 100 87" fill="none" xmlns="http://www.w3.org/2000/svg">
<path d="M51.5001 36V52.5C56.3002 54.9 63.5001 47.5 66.5 43.5L61 44L73 36L72 49L70.5 46.5C67.7 50.9 62 55 59.5 56.5C56.3 57.7 51.1667 61.6667 49 63.5C48.6 62.3 40.1667 56.6667 36 54C34.4 53.2 30 48 28 45.5L26 49V36L36.5 44H32.5L33.5 45.5C38.7 51.9 44.3333 52.8333 46.5 52.5V36C46.5 31.6 42.5 27.8333 40.5 26.5L4.00007 4C2.40007 8.4 5.33347 13.5 7.00017 15.5C3.80017 19.1 6.33348 24.3333 8.00013 26.5C7.20013 33.3 12.0001 38 14.5001 39.5C17.3001 51.1 30.3335 57.6667 36.5001 59.5C40.1001 60.7 47.0001 64.6667 50.0001 66.5C52.0001 63.7 58.8335 60.6667 62.0001 59.5C79.2001 55.1 84.5001 44.3333 85.0001 39.5C91.4001 36.3 92.0001 28.5 91.5001 25C94.7001 18.2 92.8335 15.8333 91.5001 15.5C97.1001 11.5 95.8335 4.5 94.5001 1.5L58.0001 26.5C52.0001 29.3 51.1668 34 51.5001 36Z" fill="#39B1FF" stroke="#31B5FD"/>
<path d="M0.4375 71.2148V70H6.82031V71.2148H4.34766V78H2.91016V71.2148H0.4375ZM8.05078 78V70H9.5V73.3867H13.207V70H14.6602V78H13.207V74.6016H9.5V78H8.05078ZM16.2363 78V70H21.4395V71.2148H17.6855V73.3867H21.1699V74.6016H17.6855V76.7852H21.4707V78H16.2363ZM30.0664 74C30.0664 74.862 29.9049 75.6003 29.582 76.2148C29.2617 76.8268 28.8242 77.2956 28.2695 77.6211C27.7174 77.9466 27.0911 78.1094 26.3906 78.1094C25.6901 78.1094 25.0625 77.9466 24.5078 77.6211C23.9557 77.293 23.5182 76.8229 23.1953 76.2109C22.875 75.5964 22.7148 74.8594 22.7148 74C22.7148 73.138 22.875 72.401 23.1953 71.7891C23.5182 71.1745 23.9557 70.7044 24.5078 70.3789C25.0625 70.0534 25.6901 69.8906 26.3906 69.8906C27.0911 69.8906 27.7174 70.0534 28.2695 70.3789C28.8242 70.7044 29.2617 71.1745 29.582 71.7891C29.9049 72.401 30.0664 73.138 30.0664 74ZM28.6094 74C28.6094 73.3932 28.5143 72.8815 28.3242 72.4648C28.1367 72.0456 27.8763 71.7292 27.543 71.5156C27.2096 71.2995 26.8255 71.1914 26.3906 71.1914C25.9557 71.1914 25.5716 71.2995 25.2383 71.5156C24.9049 71.7292 24.6432 72.0456 24.4531 72.4648C24.2656 72.8815 24.1719 73.3932 24.1719 74C24.1719 74.6068 24.2656 75.1198 24.4531 75.5391C24.6432 75.9557 24.9049 76.2721 25.2383 76.4883C25.5716 76.7018 25.9557 76.8086 26.3906 76.8086C26.8255 76.8086 27.2096 76.7018 27.543 76.4883C27.8763 76.2721 28.1367 75.9557 28.3242 75.5391C28.5143 75.1198 28.6094 74.6068 28.6094 74ZM38.2842 72.6992H36.8232C36.7816 72.4596 36.7048 72.2474 36.5928 72.0625C36.4808 71.875 36.3415 71.7161 36.1748 71.5859C36.0081 71.4557 35.818 71.3581 35.6045 71.293C35.3936 71.2253 35.1657 71.1914 34.9209 71.1914C34.486 71.1914 34.1006 71.3008 33.7646 71.5195C33.4287 71.7357 33.1657 72.0534 32.9756 72.4727C32.7855 72.8893 32.6904 73.3984 32.6904 74C32.6904 74.612 32.7855 75.1276 32.9756 75.5469C33.1683 75.9635 33.4313 76.2786 33.7646 76.4922C34.1006 76.7031 34.4847 76.8086 34.917 76.8086C35.1566 76.8086 35.3805 76.7773 35.5889 76.7148C35.7998 76.6497 35.9886 76.5547 36.1553 76.4297C36.3245 76.3047 36.4665 76.151 36.5811 75.9687C36.6982 75.7865 36.779 75.5781 36.8232 75.3437L38.2842 75.3516C38.2295 75.7318 38.111 76.0885 37.9287 76.4219C37.749 76.7552 37.5133 77.0495 37.2217 77.3047C36.93 77.5573 36.5889 77.7552 36.1982 77.8984C35.8076 78.0391 35.374 78.1094 34.8975 78.1094C34.1943 78.1094 33.5667 77.9466 33.0146 77.6211C32.4626 77.2956 32.0277 76.8255 31.71 76.2109C31.3923 75.5964 31.2334 74.8594 31.2334 74C31.2334 73.138 31.3936 72.401 31.7139 71.7891C32.0342 71.1745 32.4704 70.7044 33.0225 70.3789C33.5745 70.0534 34.1995 69.8906 34.8975 69.8906C35.3428 69.8906 35.7568 69.9531 36.1396 70.0781C36.5225 70.2031 36.8636 70.3867 37.1631 70.6289C37.4626 70.8685 37.7087 71.1628 37.9014 71.5117C38.0967 71.8581 38.2243 72.2539 38.2842 72.6992ZM39.6113 78V70H44.8145V71.2148H41.0605V73.3867H44.5449V74.6016H41.0605V76.7852H44.8457V78H39.6113ZM47.3203 78H45.7734L48.5898 70H50.3789L53.1992 78H51.6523L49.5156 71.6406H49.4531L47.3203 78ZM47.3711 74.8633H51.5898V76.0273H47.3711V74.8633ZM60.8271 70V78H59.5381L55.7686 72.5508H55.7021V78H54.2529V70H55.5498L59.3154 75.4531H59.3857V70H60.8271ZM68.9805 70V78H67.6914L63.9219 72.5508H63.8555V78H62.4062V70H63.7031L67.4688 75.4531H67.5391V70H68.9805ZM71.3682 78.0859C71.1312 78.0859 70.9281 78.0026 70.7588 77.8359C70.5895 77.6693 70.5062 77.4661 70.5088 77.2266C70.5062 76.9922 70.5895 76.7917 70.7588 76.625C70.9281 76.4583 71.1312 76.375 71.3682 76.375C71.5973 76.375 71.7965 76.4583 71.9658 76.625C72.1377 76.7917 72.2249 76.9922 72.2275 77.2266C72.2249 77.3854 72.1833 77.5299 72.1025 77.6602C72.0244 77.7904 71.9202 77.8945 71.79 77.9727C71.6624 78.0482 71.5218 78.0859 71.3682 78.0859ZM80.5977 72.6992H79.1367C79.0951 72.4596 79.0182 72.2474 78.9063 72.0625C78.7943 71.875 78.6549 71.7161 78.4883 71.5859C78.3216 71.4557 78.1315 71.3581 77.918 71.293C77.707 71.2253 77.4792 71.1914 77.2344 71.1914C76.7995 71.1914 76.4141 71.3008 76.0781 71.5195C75.7422 71.7357 75.4792 72.0534 75.2891 72.4727C75.099 72.8893 75.0039 73.3984 75.0039 74C75.0039 74.612 75.099 75.1276 75.2891 75.5469C75.4818 75.9635 75.7448 76.2786 76.0781 76.4922C76.4141 76.7031 76.7982 76.8086 77.2305 76.8086C77.4701 76.8086 77.694 76.7773 77.9023 76.7148C78.1133 76.6497 78.3021 76.5547 78.4688 76.4297C78.638 76.3047 78.7799 76.151 78.8945 75.9687C79.0117 75.7865 79.0924 75.5781 79.1367 75.3437L80.5977 75.3516C80.543 75.7318 80.4245 76.0885 80.2422 76.4219C80.0625 76.7552 79.8268 77.0495 79.5352 77.3047C79.2435 77.5573 78.9023 77.7552 78.5117 77.8984C78.1211 78.0391 77.6875 78.1094 77.2109 78.1094C76.5078 78.1094 75.8802 77.9466 75.3281 77.6211C74.776 77.2956 74.3411 76.8255 74.0234 76.2109C73.7057 75.5964 73.5469 74.8594 73.5469 74C73.5469 73.138 73.707 72.401 74.0273 71.7891C74.3477 71.1745 74.7839 70.7044 75.3359 70.3789C75.888 70.0534 76.513 69.8906 77.2109 69.8906C77.6563 69.8906 78.0703 69.9531 78.4531 70.0781C78.8359 70.2031 79.1771 70.3867 79.4766 70.6289C79.776 70.8685 80.0221 71.1628 80.2148 71.5117C80.4102 71.8581 80.5378 72.2539 80.5977 72.6992ZM89.0732 74C89.0732 74.862 88.9118 75.6003 88.5889 76.2148C88.2686 76.8268 87.8311 77.2956 87.2764 77.6211C86.7243 77.9466 86.098 78.1094 85.3975 78.1094C84.6969 78.1094 84.0693 77.9466 83.5146 77.6211C82.9626 77.293 82.5251 76.8229 82.2021 76.2109C81.8818 75.5964 81.7217 74.8594 81.7217 74C81.7217 73.138 81.8818 72.401 82.2021 71.7891C82.5251 71.1745 82.9626 70.7044 83.5146 70.3789C84.0693 70.0534 84.6969 69.8906 85.3975 69.8906C86.098 69.8906 86.7243 70.0534 87.2764 70.3789C87.8311 70.7044 88.2686 71.1745 88.5889 71.7891C88.9118 72.401 89.0732 73.138 89.0732 74ZM87.6162 74C87.6162 73.3932 87.5212 72.8815 87.3311 72.4648C87.1436 72.0456 86.8831 71.7292 86.5498 71.5156C86.2165 71.2995 85.8324 71.1914 85.3975 71.1914C84.9626 71.1914 84.5785 71.2995 84.2451 71.5156C83.9118 71.7292 83.6501 72.0456 83.46 72.4648C83.2725 72.8815 83.1787 73.3932 83.1787 74C83.1787 74.6068 83.2725 75.1198 83.46 75.5391C83.6501 75.9557 83.9118 76.2721 84.2451 76.4883C84.5785 76.7018 84.9626 76.8086 85.3975 76.8086C85.8324 76.8086 86.2165 76.7018 86.5498 76.4883C86.8831 76.2721 87.1436 75.9557 87.3311 75.5391C87.5212 75.1198 87.6162 74.6068 87.6162 74ZM90.4434 70H92.2168L94.5918 75.7969H94.6855L97.0605 70H98.834V78H97.4434V72.5039H97.3691L95.1582 77.9766H94.1191L91.9082 72.4922H91.834V78H90.4434V70Z" fill="#33B4FF"/>
<path d="M8.4304 81.6364H9.39773L10.6932 84.7983H10.7443L12.0398 81.6364H13.0071V86H12.2486V83.0021H12.2081L11.0021 85.9872H10.4354L9.2294 82.9957H9.18892V86H8.4304V81.6364ZM14.4283 86H13.5845L15.1207 81.6364H16.0966L17.6349 86H16.7912L15.6257 82.5312H15.5916L14.4283 86ZM14.456 84.2891H16.7571V84.924H14.456V84.2891ZM18.2097 86V81.6364H19.8461C20.1813 81.6364 20.4625 81.6946 20.6898 81.8111C20.9185 81.9276 21.0911 82.0909 21.2076 82.3011C21.3255 82.5099 21.3844 82.7536 21.3844 83.032C21.3844 83.3118 21.3248 83.5547 21.2054 83.7607C21.0875 83.9652 20.9135 84.1236 20.6834 84.2358C20.4533 84.3466 20.1706 84.402 19.8354 84.402H18.6699V83.7457H19.7289C19.9249 83.7457 20.0854 83.7187 20.2104 83.6648C20.3354 83.6094 20.4277 83.5291 20.4874 83.424C20.5485 83.3175 20.579 83.1868 20.579 83.032C20.579 82.8771 20.5485 82.745 20.4874 82.6357C20.4263 82.5249 20.3333 82.4411 20.2083 82.3842C20.0833 82.326 19.9221 82.2969 19.7246 82.2969H19.0002V86H18.2097ZM20.464 84.0227L21.5442 86H20.6621L19.601 84.0227H20.464ZM22.9025 81.6364V86H22.112V81.6364H22.9025ZM23.5668 82.299V81.6364H27.0483V82.299H25.6996V86H24.9155V82.299H23.5668ZM28.5099 81.6364V86H27.7195V81.6364H28.5099ZM29.3659 81.6364H30.3333L31.6287 84.7983H31.6799L32.9753 81.6364H33.9426V86H33.1841V83.0021H33.1436L31.9377 85.9872H31.3709L30.165 82.9957H30.1245V86H29.3659V81.6364ZM34.8034 86V81.6364H37.6415V82.299H35.5939V83.4837H37.4945V84.1463H35.5939V85.3374H37.6586V86H34.8034ZM40.7267 81.6364V86H39.9363V81.6364H40.7267ZM43.9542 82.8359C43.9343 82.6499 43.8505 82.505 43.7028 82.4013C43.5565 82.2976 43.3661 82.2457 43.1317 82.2457C42.967 82.2457 42.8256 82.2706 42.7077 82.3203C42.5898 82.37 42.4996 82.4375 42.4371 82.5227C42.3746 82.608 42.3427 82.7053 42.3413 82.8146C42.3413 82.9055 42.3619 82.9844 42.4031 83.0511C42.4457 83.1179 42.5032 83.1747 42.5756 83.2216C42.6481 83.267 42.7283 83.3054 42.8164 83.3366C42.9045 83.3679 42.9933 83.3942 43.0827 83.4155L43.4918 83.5178C43.6566 83.5561 43.815 83.608 43.967 83.6733C44.1204 83.7386 44.2575 83.821 44.3782 83.9205C44.5004 84.0199 44.5969 84.1399 44.668 84.2805C44.739 84.4212 44.7745 84.5859 44.7745 84.7749C44.7745 85.0305 44.7092 85.2557 44.5785 85.4503C44.4478 85.6435 44.2589 85.7947 44.0117 85.9041C43.766 86.0121 43.4684 86.0661 43.119 86.0661C42.7795 86.0661 42.4847 86.0135 42.2347 85.9084C41.9862 85.8033 41.7915 85.6499 41.6509 85.4482C41.5117 85.2464 41.4364 85.0007 41.4251 84.7109H42.2028C42.2141 84.8629 42.261 84.9893 42.3434 85.0902C42.4258 85.1911 42.533 85.2663 42.6651 85.3161C42.7987 85.3658 42.9478 85.3906 43.1126 85.3906C43.2844 85.3906 43.435 85.3651 43.5643 85.3139C43.695 85.2614 43.7972 85.1889 43.8711 85.0966C43.945 85.0028 43.9826 84.8935 43.984 84.7685C43.9826 84.6548 43.9492 84.5611 43.8839 84.4872C43.8185 84.4119 43.7269 84.3494 43.609 84.2997C43.4925 84.2486 43.3562 84.2031 43.1999 84.1634L42.7035 84.0355C42.3441 83.9432 42.06 83.8033 41.8512 83.6158C41.6438 83.4268 41.5401 83.1761 41.5401 82.8636C41.5401 82.6065 41.6097 82.3814 41.7489 82.1882C41.8896 81.995 42.0806 81.8452 42.3221 81.7386C42.5636 81.6307 42.837 81.5767 43.1424 81.5767C43.4521 81.5767 43.7234 81.6307 43.9563 81.7386C44.1907 81.8452 44.3746 81.9936 44.5082 82.1839C44.6417 82.3729 44.7106 82.5902 44.7148 82.8359H43.9542ZM50.8667 83.8182C50.8667 84.2884 50.7786 84.6911 50.6025 85.0263C50.4277 85.3601 50.1891 85.6158 49.8865 85.7933C49.5854 85.9709 49.2438 86.0597 48.8617 86.0597C48.4796 86.0597 48.1373 85.9709 47.8347 85.7933C47.5336 85.6143 47.2949 85.358 47.1188 85.0241C46.9441 84.6889 46.8567 84.2869 46.8567 83.8182C46.8567 83.348 46.9441 82.946 47.1188 82.6122C47.2949 82.277 47.5336 82.0206 47.8347 81.843C48.1373 81.6655 48.4796 81.5767 48.8617 81.5767C49.2438 81.5767 49.5854 81.6655 49.8865 81.843C50.1891 82.0206 50.4277 82.277 50.6025 82.6122C50.7786 82.946 50.8667 83.348 50.8667 83.8182ZM50.0719 83.8182C50.0719 83.4872 50.0201 83.2081 49.9164 82.9808C49.8141 82.7521 49.6721 82.5795 49.4902 82.4631C49.3084 82.3452 49.0989 82.2862 48.8617 82.2862C48.6245 82.2862 48.415 82.3452 48.2331 82.4631C48.0513 82.5795 47.9086 82.7521 47.8049 82.9808C47.7026 83.2081 47.6515 83.4872 47.6515 83.8182C47.6515 84.1491 47.7026 84.429 47.8049 84.6577C47.9086 84.8849 48.0513 85.0575 48.2331 85.1754C48.415 85.2919 48.6245 85.3501 48.8617 85.3501C49.0989 85.3501 49.3084 85.2919 49.4902 85.1754C49.6721 85.0575 49.8141 84.8849 49.9164 84.6577C50.0201 84.429 50.0719 84.1491 50.0719 83.8182ZM54.3647 81.6364H55.1552V84.4872C55.1552 84.7997 55.0813 85.0746 54.9336 85.3118C54.7873 85.549 54.5813 85.7344 54.3157 85.8679C54.0501 86 53.7397 86.0661 53.3846 86.0661C53.0281 86.0661 52.717 86 52.4513 85.8679C52.1857 85.7344 51.9798 85.549 51.8335 85.3118C51.6871 85.0746 51.614 84.7997 51.614 84.4872V81.6364H52.4045V84.4212C52.4045 84.603 52.4442 84.7649 52.5238 84.907C52.6048 85.049 52.7184 85.1605 52.8647 85.2415C53.011 85.321 53.1843 85.3608 53.3846 85.3608C53.5849 85.3608 53.7582 85.321 53.9045 85.2415C54.0522 85.1605 54.1658 85.049 54.2454 84.907C54.3249 84.7649 54.3647 84.603 54.3647 84.4212V81.6364ZM56.0144 86V81.6364H57.6507C57.986 81.6364 58.2672 81.6946 58.4945 81.8111C58.7232 81.9276 58.8958 82.0909 59.0123 82.3011C59.1301 82.5099 59.1891 82.7536 59.1891 83.032C59.1891 83.3118 59.1294 83.5547 59.0101 83.7607C58.8922 83.9652 58.7182 84.1236 58.4881 84.2358C58.258 84.3466 57.9753 84.402 57.6401 84.402H56.4746V83.7457H57.5336C57.7296 83.7457 57.8901 83.7187 58.0151 83.6648C58.1401 83.6094 58.2324 83.5291 58.2921 83.424C58.3532 83.3175 58.3837 83.1868 58.3837 83.032C58.3837 82.8771 58.3532 82.745 58.2921 82.6357C58.231 82.5249 58.138 82.4411 58.013 82.3842C57.888 82.326 57.7267 82.2969 57.5293 82.2969H56.8049V86H56.0144ZM58.2686 84.0227L59.3489 86H58.4668L57.4057 84.0227H58.2686ZM61.405 86V81.6364H62.1955V83.6413H62.2488L63.9512 81.6364H64.9164L63.2289 83.5945L64.9313 86H63.981L62.6792 84.1293L62.1955 84.7003V86H61.405ZM66.256 81.6364V86H65.4656V81.6364H66.256ZM70.698 81.6364V86H69.9949L67.9387 83.0277H67.9025V86H67.112V81.6364H67.8194L69.8734 84.6108H69.9118V81.6364H70.698ZM74.4826 83.0298C74.4471 82.9148 74.3981 82.8118 74.3356 82.7209C74.2745 82.6286 74.2006 82.5497 74.114 82.4844C74.0288 82.419 73.9308 82.37 73.82 82.3374C73.7092 82.3033 73.5884 82.2862 73.4577 82.2862C73.2234 82.2862 73.0146 82.3452 72.8313 82.4631C72.6481 82.581 72.5039 82.7543 72.3988 82.983C72.2951 83.2102 72.2433 83.4872 72.2433 83.8139C72.2433 84.1435 72.2951 84.4226 72.3988 84.6513C72.5025 84.88 72.6467 85.054 72.8313 85.1733C73.016 85.2912 73.2305 85.3501 73.4748 85.3501C73.6964 85.3501 73.8881 85.3075 74.0501 85.2223C74.2134 85.1371 74.3391 85.0163 74.4272 84.8601C74.5153 84.7024 74.5593 84.5178 74.5593 84.3061L74.7383 84.3338H73.5536V83.7159H75.3242V84.2401C75.3242 84.6136 75.2447 84.9368 75.0856 85.2095C74.9265 85.4822 74.7077 85.6925 74.4293 85.8402C74.1509 85.9865 73.8313 86.0597 73.4705 86.0597C73.0685 86.0597 72.7156 85.9695 72.4116 85.7891C72.109 85.6072 71.8725 85.3494 71.7021 85.0156C71.533 84.6804 71.4485 84.2827 71.4485 83.8224C71.4485 83.4702 71.4982 83.1555 71.5977 82.8786C71.6985 82.6016 71.8391 82.3665 72.0195 82.1733C72.1999 81.9787 72.4116 81.831 72.6545 81.7301C72.8974 81.6278 73.1616 81.5767 73.4471 81.5767C73.6886 81.5767 73.9137 81.6122 74.1225 81.6832C74.3313 81.7528 74.5167 81.8523 74.6786 81.9815C74.842 82.1108 74.9762 82.2642 75.0813 82.4418C75.1864 82.6193 75.2553 82.8153 75.288 83.0298H74.4826ZM77.5673 86H76.0886V81.6364H77.5971C78.0304 81.6364 78.4025 81.7237 78.7136 81.8984C79.0261 82.0717 79.2662 82.321 79.4338 82.6463C79.6014 82.9716 79.6852 83.3608 79.6852 83.8139C79.6852 84.2685 79.6007 84.6591 79.4316 84.9858C79.264 85.3125 79.0218 85.5632 78.7051 85.7379C78.3897 85.9126 78.0105 86 77.5673 86ZM76.8791 85.3161H77.5289C77.8329 85.3161 78.0865 85.2607 78.2896 85.1499C78.4927 85.0376 78.6454 84.8707 78.7477 84.6491C78.85 84.4261 78.9011 84.1477 78.9011 83.8139C78.9011 83.4801 78.85 83.2031 78.7477 82.983C78.6454 82.7614 78.4941 82.5959 78.2939 82.4865C78.095 82.3757 77.8478 82.3203 77.5524 82.3203H76.8791V85.3161ZM84.3354 83.8182C84.3354 84.2884 84.2473 84.6911 84.0712 85.0263C83.8965 85.3601 83.6578 85.6158 83.3553 85.7933C83.0542 85.9709 82.7125 86.0597 82.3304 86.0597C81.9483 86.0597 81.606 85.9709 81.3034 85.7933C81.0023 85.6143 80.7637 85.358 80.5875 85.0241C80.4128 84.6889 80.3255 84.2869 80.3255 83.8182C80.3255 83.348 80.4128 82.946 80.5875 82.6122C80.7637 82.277 81.0023 82.0206 81.3034 81.843C81.606 81.6655 81.9483 81.5767 82.3304 81.5767C82.7125 81.5767 83.0542 81.6655 83.3553 81.843C83.6578 82.0206 83.8965 82.277 84.0712 82.6122C84.2473 82.946 84.3354 83.348 84.3354 83.8182ZM83.5407 83.8182C83.5407 83.4872 83.4888 83.2081 83.3851 82.9808C83.2828 82.7521 83.1408 82.5795 82.959 82.4631C82.7772 82.3452 82.5676 82.2862 82.3304 82.2862C82.0932 82.2862 81.8837 82.3452 81.7019 82.4631C81.5201 82.5795 81.3773 82.7521 81.2736 82.9808C81.1713 83.2081 81.1202 83.4872 81.1202 83.8182C81.1202 84.1491 81.1713 84.429 81.2736 84.6577C81.3773 84.8849 81.5201 85.0575 81.7019 85.1754C81.8837 85.2919 82.0932 85.3501 82.3304 85.3501C82.5676 85.3501 82.7772 85.2919 82.959 85.1754C83.1408 85.0575 83.2828 84.8849 83.3851 84.6577C83.4888 84.429 83.5407 84.1491 83.5407 83.8182ZM85.0827 81.6364H86.0501L87.3455 84.7983H87.3967L88.6921 81.6364H89.6594V86H88.9009V83.0021H88.8604L87.6545 85.9872H87.0877L85.8817 82.9957H85.8413V86H85.0827V81.6364Z" fill="#34B4FD"/>
</svg>
