<svg width="45" height="45" viewBox="0 0 45 45" fill="none" xmlns="http://www.w3.org/2000/svg">
<g id="Frame">
<path id="Vector" d="M16.9348 22.4993L11.25 18.4866V26.5122L16.9348 22.4993ZM8.97814 32.7059C8.81996 32.8176 8.63111 32.8776 8.4375 32.8776C7.91974 32.8776 7.5 32.4578 7.5 31.9401V13.0587C7.5 12.8651 7.55994 12.6762 7.6716 12.518C7.97017 12.095 8.55514 11.9942 8.97814 12.2928L22.3524 21.7334C22.4398 21.7951 22.5161 21.8714 22.5778 21.9588C22.8763 22.3818 22.7754 22.9668 22.3524 23.2653L8.97814 32.7059ZM28.125 26.5122L33.8098 22.4993L28.125 18.4866V26.5122ZM24.375 13.0587C24.375 12.8651 24.435 12.6762 24.5466 12.518C24.8453 12.095 25.4301 11.9942 25.8531 12.2928L39.2274 21.7334C39.3148 21.7951 39.3911 21.8714 39.4528 21.9588C39.7513 22.3818 39.6504 22.9668 39.2274 23.2653L25.8531 32.7059C25.695 32.8176 25.5062 32.8776 25.3125 32.8776C24.7948 32.8776 24.375 32.4578 24.375 31.9401V13.0587Z" fill="#F39C12"/>
</g>
</svg>
