<svg width="1400" height="832" viewBox="0 0 1400 832" fill="none" xmlns="http://www.w3.org/2000/svg">
<g clip-path="url(#clip0_1051_404)">
<rect width="1400" height="832" fill="#FCFDFD"/>
<path d="M55.0002 684.155C80.8085 598.24 177.787 454.543 359.233 567.069C540.68 679.595 644.807 577.773 670.392 507.454C689.8 454.108 732.468 374.1 815.067 379.343C897.665 384.587 940.083 322.472 950.967 290.759L992.811 162.519" stroke="black" stroke-dasharray="5 5"/>
<path d="M27.6885 -119.026L-49.4279 -67.2024C-52.4411 -65.1823 -54.7481 -62.5169 -55.8404 -59.7939L-78.2698 -3.75861C-80.4515 1.69407 -80.0223 6.81279 -77.0768 10.4704L-41.6724 54.5098C-40.2023 56.3406 -39.9891 58.9004 -41.0798 61.6269L-51.787 88.3766C-52.876 91.098 -52.6628 93.6529 -51.1941 95.4792L-27.2288 125.29C-24.2899 128.952 -19.0746 130.854 -12.7314 130.578L136.853 124.033C141.918 123.813 147.47 121.868 152.279 118.626L184.308 97.1028C189.112 93.8756 192.788 89.6208 194.526 85.2761L220.612 20.1056C222.353 15.7606 222.013 11.6808 219.666 8.76621L109.527 -128.236C107.973 -130.146 105.236 -131.137 101.912 -130.992L46.1578 -128.582C43.1691 -128.453 39.8917 -127.3 37.0589 -125.38L27.6885 -119.026Z" fill="#A2AFB9" fill-opacity="0.25"/>
</g>
<defs>
<clipPath id="clip0_1051_404">
<rect width="1400" height="832" fill="white"/>
</clipPath>
</defs>
</svg>
