<svg width="42" height="55" viewBox="0 0 42 55" fill="none" xmlns="http://www.w3.org/2000/svg">
<g id="Group">
<g id="Group_2">
<g id="Group_3">
<path id="Vector" d="M17.1654 37.8837C16.6596 38.0208 16.2802 38.1578 15.9008 38.4319C15.395 37.6096 15.0156 36.6503 14.5098 35.9651C13.6246 34.5946 12.6129 33.3612 11.7277 31.9908C10.3367 29.9351 9.19858 27.8794 8.69275 25.2755C7.55463 18.8344 10.8425 12.5303 16.5331 10.0634C23.9941 6.77434 32.5932 12.2562 33.7314 20.8901C34.2372 24.8644 33.0991 28.1535 31.0757 31.3055C30.1905 32.676 29.0524 34.0465 28.1672 35.554C27.5349 36.5133 27.1556 37.4726 26.5233 38.4319C26.2704 38.8431 26.0174 39.2542 25.6381 39.3912C22.7295 40.6247 19.821 41.721 16.9125 42.8174C16.5331 42.9544 16.2802 42.8174 16.1537 42.5433C16.0273 42.1322 16.0273 41.721 16.4067 41.584C16.6596 41.4469 16.9125 41.3099 17.1654 41.3099C19.6945 40.3506 22.2237 39.3912 24.7529 38.2949C25.0058 38.1578 25.2587 37.8837 25.3851 37.6097C26.3968 35.554 27.6614 33.9094 28.926 31.9908C30.1906 30.2092 31.3287 28.5646 31.8345 26.3719C33.0991 21.9864 32.2139 18.1491 29.4318 14.86C26.2704 11.0228 22.2237 9.78934 17.6713 11.2968C13.1188 12.8044 10.5896 16.2305 9.70439 21.3012C9.07211 24.8644 10.2102 27.8794 12.1071 30.6203C13.2452 32.2649 14.3833 33.9094 15.5215 35.554C16.2802 36.1021 16.6596 36.9244 17.1654 37.8837Z" fill="#FF7000"/>
<path id="Vector_2" d="M16.5317 51.4513C16.4052 51.3142 16.1523 51.1772 16.1523 50.9031C16.1523 50.629 16.2788 50.3549 16.4053 50.0808C16.4053 49.9438 16.6582 49.9438 16.7846 49.9438C19.5667 48.8474 22.4752 47.751 25.2573 46.6547C25.8896 46.3806 26.1425 46.5176 26.269 46.9288C26.3954 47.3399 26.1425 47.751 25.6367 48.0251C22.7281 49.1215 19.9461 50.2179 17.0376 51.4513C16.9111 51.3142 16.7846 51.3142 16.5317 51.4513Z" fill="#FF7000"/>
<path id="Vector_3" d="M16.5317 46.9291C16.4052 46.792 16.1523 46.655 16.1523 46.3809C16.1523 46.1068 16.2788 45.8327 16.4053 45.5586C16.4053 45.4216 16.6582 45.4216 16.7846 45.4216C19.5667 44.3252 22.4752 43.2288 25.2573 42.1325C25.8896 41.8584 26.1425 41.9954 26.269 42.4066C26.3954 42.8177 26.269 43.2288 25.6367 43.5029C22.7281 44.5993 19.9461 45.8327 17.0376 46.9291C16.9111 46.9291 16.7846 46.9291 16.5317 46.9291Z" fill="#FF7000"/>
<path id="Vector_4" d="M25.6372 50.7661C24.752 54.0552 19.8201 55.9739 16.7852 54.1923C19.6937 53.0959 22.6022 51.8625 25.6372 50.7661Z" fill="#FF7000"/>
<path id="Vector_5" d="M21.8427 2.8002C21.8427 3.34838 21.8427 3.89657 21.8427 4.44475C21.8427 4.85589 21.5898 5.12998 21.2104 5.12998C20.831 5.12998 20.5781 4.85589 20.5781 4.44475C20.5781 3.34838 20.5781 2.25202 20.5781 1.0186C20.5781 0.607466 20.831 0.333374 21.2104 0.333374C21.5898 0.333374 21.8427 0.607466 21.8427 1.0186C21.8427 1.56679 21.8427 2.25202 21.8427 2.8002Z" fill="#FF7000"/>
<path id="Vector_6" d="M2.74888 21.9866C3.25471 21.9866 3.76056 21.9866 4.26639 21.9866C4.77222 21.9866 5.02514 22.2607 5.02514 22.6718C5.02514 23.0829 4.77222 23.357 4.26639 23.357C3.25473 23.357 2.24307 23.357 1.23141 23.357C0.725579 23.357 0.472656 23.0829 0.472656 22.6718C0.472656 22.2607 0.725579 21.9866 1.23141 21.9866C1.73724 21.9866 2.24305 21.9866 2.74888 21.9866Z" fill="#FF7000"/>
<path id="Vector_7" d="M39.6732 23.4941C39.1674 23.4941 38.6616 23.4941 38.1557 23.4941C37.7764 23.4941 37.5234 23.22 37.5234 22.8089C37.5234 22.3977 37.7764 22.1237 38.1557 22.1237C39.1674 22.1237 40.3055 22.1237 41.3172 22.1237C41.6965 22.1237 41.9495 22.3977 41.9495 22.8089C41.9495 23.22 41.6965 23.4941 41.3172 23.4941C40.6849 23.4941 40.1791 23.4941 39.6732 23.4941Z" fill="#FF7000"/>
<path id="Vector_8" d="M6.79404 6.36316C7.04696 6.50021 7.17341 6.63725 7.29987 6.7743C8.05861 7.59657 8.69092 8.2818 9.44966 9.10408C9.82904 9.51521 9.82904 9.7893 9.44966 10.2004C9.19675 10.4745 8.81735 10.4745 8.43798 10.2004C7.67923 9.37817 6.92051 8.69294 6.28822 7.87066C6.16176 7.73362 6.0353 7.32248 6.16175 7.04839C6.28821 6.63725 6.66758 6.50021 6.79404 6.36316Z" fill="#FF7000"/>
<path id="Vector_9" d="M33.2262 35.006C33.4791 35.143 33.6055 35.2801 33.732 35.4171C34.4907 36.1023 35.123 36.9246 35.8818 37.6099C36.2612 38.021 36.2612 38.4321 36.0083 38.7062C35.7553 38.9803 35.3759 38.9803 34.9966 38.5692C34.2378 37.7469 33.6056 37.0617 32.8468 36.2394C32.7204 36.1024 32.5939 35.6912 32.7203 35.4171C32.7203 35.2801 32.9733 35.143 33.2262 35.006Z" fill="#FF7000"/>
<path id="Vector_10" d="M36.2617 7.18572C36.1353 7.45981 36.0088 7.59686 35.8824 7.7339C35.1236 8.55618 34.4913 9.24141 33.7326 10.0637C33.4797 10.3378 33.1003 10.4748 32.7209 10.0637C32.468 9.78959 32.468 9.37845 32.7209 8.96732C33.4797 8.14504 34.1119 7.32277 34.8707 6.63754C34.9972 6.50049 35.3765 6.36345 35.6294 6.50049C35.8824 6.63754 36.0088 7.04868 36.2617 7.18572Z" fill="#FF7000"/>
<path id="Vector_11" d="M6.7964 38.9802C6.66994 38.8432 6.41704 38.7061 6.29058 38.432C6.16412 38.295 6.29058 37.8839 6.29058 37.7468C7.04932 36.9245 7.80806 35.9652 8.69327 35.1429C8.94618 34.8689 9.32553 34.8689 9.57845 35.1429C9.83136 35.417 9.83136 35.8282 9.57845 36.1023C8.8197 36.9245 8.06097 37.7468 7.30222 38.5691C7.17577 38.8432 7.04932 38.9802 6.7964 38.9802Z" fill="#FF7000"/>
</g>
</g>
</g>
</svg>
