<svg width="54" height="58" viewBox="0 0 54 58" fill="none" xmlns="http://www.w3.org/2000/svg">
<g id="Group">
<g id="Group_2">
<g id="Group_3">
<g id="Group_4">
<path id="Vector" d="M51.8384 2.29232C51.0484 2.29232 50.1266 2.29232 49.3366 2.29232C43.9378 2.57773 38.8025 3.86204 33.9304 6.43066C28.005 9.42739 23.0013 13.7084 19.051 19.4165C16.2858 23.2694 14.3107 27.5505 12.8622 32.1169C12.7306 32.4023 12.8622 32.545 12.9939 32.6877C14.179 33.972 15.3641 35.2563 16.5492 36.5406C16.6809 36.6833 16.8125 36.9687 16.8125 37.2541C16.8125 37.5395 16.6809 37.825 16.4175 37.9677C16.1541 38.1104 15.7591 38.1104 15.6274 37.825C14.9691 37.1114 14.4424 36.5406 13.784 35.8271C12.9939 34.9709 12.3355 34.1147 11.5455 33.4012C11.2821 33.1158 11.1504 32.6877 11.2821 32.2596C12.9939 26.6942 15.4958 21.557 19.051 16.9906C22.6063 12.2814 26.9516 8.57118 31.8236 5.85986C36.3006 3.29123 41.1726 1.72152 46.1763 1.00801C48.2832 0.722608 50.39 0.579907 52.4968 0.722608C53.1552 0.722608 53.2869 1.00801 53.4185 1.72152C53.6819 10.9971 51.5751 19.5592 46.9664 27.5505C42.3577 35.399 36.0373 41.2498 28.1367 44.96C26.9516 45.5308 25.6348 45.9589 24.3181 46.5297C23.923 46.6724 23.6597 46.6724 23.3963 46.2443C22.0796 44.8173 20.6311 43.2476 19.3144 41.8206C19.051 41.5352 18.9193 41.1071 19.1827 40.679C19.4461 40.2509 19.9728 40.2509 20.3678 40.679C21.5529 41.9633 22.738 43.2476 23.923 44.5319C24.1864 44.8173 24.3181 44.8173 24.5814 44.6746C30.3752 42.5341 35.5106 39.1093 39.8559 34.5428C44.9913 29.1202 48.4148 22.6986 50.39 15.4208C51.4434 11.4252 51.9701 7.28687 51.9701 3.00583C51.9701 2.72043 51.8384 2.57773 51.8384 2.29232Z" fill="#FF7000"/>
</g>
<g id="Group_5">
<path id="Vector_2" d="M44.5958 18.9885C44.5958 23.8403 41.0405 27.6932 36.5635 27.6932C32.0865 27.6932 28.5312 23.8403 28.5312 18.9885C28.5312 14.2793 32.0865 10.2837 36.4318 10.2837C41.0405 10.2837 44.5958 14.1366 44.5958 18.9885ZM43.0156 19.1312C43.0156 15.1355 40.1188 11.9961 36.4318 11.9961C32.7449 11.9961 29.848 15.1355 29.848 19.1312C29.848 23.1268 32.7449 26.2662 36.4318 26.2662C40.1188 26.1235 43.0156 22.9841 43.0156 19.1312Z" fill="#FF7000"/>
</g>
<g id="Group_6">
<path id="Vector_3" d="M24.4527 55.5196C25.3744 54.9488 26.2962 54.2353 27.0862 53.5218C29.7198 50.9532 31.1682 47.8138 31.8266 44.1035C31.9582 43.5327 32.2216 43.2473 32.6166 43.2473C33.1433 43.2473 33.4067 43.6754 33.4067 44.2462C33.275 44.9597 33.1433 45.8159 32.88 46.5294C31.4315 51.3813 28.798 54.9488 24.7161 57.3747C23.7943 57.9455 23.3993 57.6601 23.2676 56.6612C22.7409 53.6645 22.2142 50.5251 21.6875 47.5284C21.6875 47.2429 21.6875 46.9575 21.6875 46.8148C21.8192 46.5294 22.0825 46.3867 22.4776 46.3867C22.7409 46.3867 23.0043 46.6721 23.1359 46.9575C23.2676 47.8138 23.3993 48.67 23.6626 49.6689C23.7943 51.6667 24.1893 53.5218 24.4527 55.5196Z" fill="#FF7000"/>
</g>
<g id="Group_7">
<path id="Vector_4" d="M2.72454 31.9741C3.5146 32.1168 4.30466 32.2595 4.96304 32.4022C6.80651 32.8303 8.64997 33.1157 10.3618 33.5438C10.4934 33.5438 10.4934 33.5438 10.6251 33.5438C11.0201 33.6865 11.2835 34.1146 11.1518 34.5427C11.0201 34.9708 10.7568 35.2562 10.2301 35.1135C9.17668 34.8281 7.99159 34.6854 6.93818 34.4C5.22639 33.9719 3.5146 33.6865 1.67113 33.2584C1.53945 33.2584 1.53945 33.2584 1.40778 33.2584C0.749396 33.1157 0.617719 32.6876 0.881072 31.9741C1.67113 30.4044 2.59286 28.8347 3.77795 27.5503C6.2798 24.6963 9.30836 23.1266 12.7319 22.2704C12.8636 22.2704 12.9953 22.2704 12.9953 22.1277C13.3903 21.985 13.7853 22.2704 13.917 22.6985C14.0487 23.1266 13.7853 23.5547 13.2586 23.6974C12.4686 23.9828 11.5469 24.1255 10.7568 24.4109C7.33321 25.6952 4.69968 27.9785 2.72454 31.2606C2.85622 31.6887 2.85622 31.8314 2.72454 31.9741Z" fill="#FF7000"/>
</g>
<g id="Group_8">
<path id="Vector_5" d="M12.0742 44.6747C12.2059 44.532 12.3376 44.2466 12.4692 44.1039C14.9711 41.3926 17.3413 38.824 19.8431 36.1126C20.7649 35.1137 21.5549 34.2575 22.4766 33.2586C22.8717 32.8305 23.2667 32.8305 23.6617 33.1159C23.9251 33.4013 23.9251 33.9721 23.5301 34.4002C20.6332 37.5396 17.7363 40.8218 14.7077 43.9612C14.3127 44.3893 13.9177 44.9601 13.391 45.3882C13.1276 45.6736 12.8643 45.6736 12.6009 45.5309C12.2059 45.3882 12.0742 45.1028 12.0742 44.6747Z" fill="#FF7000"/>
</g>
<g id="Group_9">
<path id="Vector_6" d="M8.65028 48.3849C8.91363 48.5276 9.17698 48.6703 9.30866 48.9557C9.44033 49.2411 9.30866 49.5265 9.17698 49.8119C9.04531 49.9546 8.78195 50.24 8.65028 50.5254C7.07016 52.2378 5.49005 54.0929 3.77825 55.8054C3.5149 55.9481 3.38323 56.0908 3.11987 56.0908C2.85652 56.0908 2.59317 55.9481 2.46149 55.6627C2.32982 55.2345 2.32982 54.9491 2.59317 54.6637C3.64658 53.5221 4.69999 52.3805 5.7534 51.2389C6.54346 50.3827 7.20184 49.6692 7.9919 48.813C8.25525 48.6703 8.38692 48.5276 8.65028 48.3849Z" fill="#FF7000"/>
</g>
<g id="Group_10">
<path id="Vector_7" d="M7.46393 42.5341C8.12231 42.5341 8.51734 43.2476 8.25398 43.6757C8.12231 43.8184 8.12231 43.9611 7.99063 44.1038C6.27884 45.9589 4.56705 47.814 2.85526 49.6691L2.72358 49.8118C2.32855 50.0972 1.93352 50.2399 1.67017 49.8118C1.40682 49.5264 1.40682 48.9556 1.67017 48.6702C2.98693 47.2432 4.3037 45.8162 5.62046 44.3892C6.14716 43.8184 6.54219 43.3903 7.0689 42.9622C7.20057 42.6768 7.46393 42.5341 7.46393 42.5341Z" fill="#FF7000"/>
</g>
<g id="Group_11">
<path id="Vector_8" d="M14.8393 50.5254C14.8393 50.6681 14.7076 50.8108 14.5759 51.0962C12.7325 53.094 11.0207 54.9491 9.17722 56.9469C8.78219 57.375 8.38716 57.375 7.99213 56.9469C7.72878 56.6615 7.72878 56.0907 8.12381 55.8053C9.96728 53.8075 11.6791 51.9524 13.5225 49.9545C13.7859 49.6691 14.0492 49.5264 14.4443 49.6691C14.7076 49.8118 14.8393 49.9545 14.8393 50.5254Z" fill="#FF7000"/>
</g>
</g>
</g>
</g>
</svg>
