<svg width="59" height="58" viewBox="0 0 59 58" fill="none" xmlns="http://www.w3.org/2000/svg">
<g id="stack-line 1" clip-path="url(#clip0_138_1228)">
<path id="Vector" d="M49.033 36.7334L51.9378 38.4758C52.117 38.5831 52.2654 38.735 52.3684 38.9167C52.4714 39.0984 52.5255 39.3037 52.5255 39.5126C52.5255 39.7214 52.4714 39.9267 52.3684 40.1084C52.2654 40.2901 52.117 40.442 51.9378 40.5493L30.7437 53.2658C30.3678 53.4916 29.9376 53.6109 29.4991 53.6109C29.0606 53.6109 28.6304 53.4916 28.2545 53.2658L7.06033 40.5493C6.88112 40.442 6.73279 40.2901 6.62979 40.1084C6.5268 39.9267 6.47266 39.7214 6.47266 39.5126C6.47266 39.3037 6.5268 39.0984 6.62979 38.9167C6.73279 38.735 6.88112 38.5831 7.06033 38.4758L9.96516 36.7334L29.4991 48.4542L49.033 36.7334ZM49.033 25.3751L51.9378 27.1175C52.117 27.2248 52.2654 27.3767 52.3684 27.5584C52.4714 27.7401 52.5255 27.9454 52.5255 28.1542C52.5255 28.3631 52.4714 28.5684 52.3684 28.7501C52.2654 28.9318 52.117 29.0837 51.9378 29.191L29.4991 42.6542L7.06033 29.191C6.88112 29.0837 6.73279 28.9318 6.62979 28.7501C6.5268 28.5684 6.47266 28.3631 6.47266 28.1542C6.47266 27.9454 6.5268 27.7401 6.62979 27.5584C6.73279 27.3767 6.88112 27.2248 7.06033 27.1175L9.96516 25.3751L29.4991 37.0959L49.033 25.3751ZM30.7412 3.16348L51.9378 15.88C52.117 15.9873 52.2654 16.1392 52.3684 16.3209C52.4714 16.5026 52.5255 16.7079 52.5255 16.9167C52.5255 17.1256 52.4714 17.3309 52.3684 17.5126C52.2654 17.6943 52.117 17.8462 51.9378 17.9535L29.4991 31.4167L7.06033 17.9535C6.88112 17.8462 6.73279 17.6943 6.62979 17.5126C6.5268 17.3309 6.47266 17.1256 6.47266 16.9167C6.47266 16.7079 6.5268 16.5026 6.62979 16.3209C6.73279 16.1392 6.88112 15.9873 7.06033 15.88L28.2545 3.16348C28.6304 2.93766 29.0606 2.81836 29.4991 2.81836C29.9376 2.81836 30.3678 2.93766 30.7437 3.16348H30.7412ZM29.4991 8.0524L14.726 16.9167L29.4991 25.7811L44.2722 16.9167L29.4991 8.0524Z" fill="#183165"/>
</g>
<defs>
<clipPath id="clip0_138_1228">
<rect width="58" height="58" fill="white" transform="translate(0.5)"/>
</clipPath>
</defs>
</svg>
