<svg width="57" height="56" viewBox="0 0 57 56" fill="none" xmlns="http://www.w3.org/2000/svg">
<g id="Frame">
<path id="Vector" d="M5.16602 27.9995C5.16602 25.9824 5.42198 24.0249 5.90323 22.1581C8.4472 22.2899 10.9725 21.0237 12.3335 18.6662C13.6936 16.3106 13.5288 13.493 12.1455 11.3564C14.9276 8.62234 18.3921 6.58051 22.2601 5.50977C23.4178 7.77898 25.7771 9.33291 28.4994 9.33291C31.2217 9.33291 33.5809 7.77898 34.7387 5.50977C38.6067 6.58051 42.0712 8.62234 44.8532 11.3564C43.4698 13.493 43.305 16.3106 44.6651 18.6662C46.0262 21.0237 48.5516 22.2899 51.0956 22.1581C51.5767 24.0249 51.8327 25.9824 51.8327 27.9995C51.8327 30.0167 51.5767 31.9741 51.0956 33.841C48.5516 33.7092 46.0262 34.9755 44.6651 37.3329C43.305 39.6886 43.4698 42.5061 44.8532 44.6427C42.0712 47.3767 38.6067 49.4186 34.7387 50.4894C33.5809 48.2202 31.2217 46.6662 28.4994 46.6662C25.7771 46.6662 23.4178 48.2202 22.2601 50.4894C18.3921 49.4186 14.9276 47.3767 12.1455 44.6427C13.5288 42.5061 13.6936 39.6886 12.3335 37.3329C10.9725 34.9755 8.4472 33.7092 5.90323 33.841C5.42198 31.9741 5.16602 30.0167 5.16602 27.9995ZM16.375 34.9995C17.8452 37.5461 18.2667 40.4738 17.6918 43.2217C18.6433 43.8989 19.6561 44.4855 20.7174 44.9729C22.8101 43.0995 25.5575 41.9995 28.4994 41.9995C31.4412 41.9995 34.1885 43.0995 36.2813 44.9729C37.3425 44.4855 38.3554 43.8989 39.3069 43.2217C38.7319 40.4738 39.1534 37.5461 40.6238 34.9995C42.0938 32.4532 44.4185 30.6245 47.0855 29.7484C47.139 29.1702 47.166 28.5871 47.166 27.9995C47.166 27.4122 47.139 26.8289 47.0855 26.2509C44.4185 25.3748 42.0938 23.5461 40.6238 20.9996C39.1534 18.453 38.7319 15.5255 39.3069 12.7774C38.3554 12.1004 37.3425 11.5138 36.2813 11.0262C34.1885 12.8997 31.4412 13.9996 28.4994 13.9996C25.5575 13.9996 22.8101 12.8997 20.7174 11.0262C19.6561 11.5138 18.6433 12.1004 17.6918 12.7774C18.2667 15.5255 17.8452 18.453 16.375 20.9996C14.9048 23.5461 12.5803 25.3748 9.91321 26.2509C9.85968 26.8289 9.83268 27.4122 9.83268 27.9995C9.83268 28.5871 9.85968 29.1702 9.91321 29.7484C12.5803 30.6245 14.9048 32.4532 16.375 34.9995ZM28.4994 34.9995C24.6332 34.9995 21.4993 31.8656 21.4993 27.9995C21.4993 24.1337 24.6332 20.9996 28.4994 20.9996C32.3655 20.9996 35.4994 24.1337 35.4994 27.9995C35.4994 31.8656 32.3655 34.9995 28.4994 34.9995ZM28.4994 30.3329C29.788 30.3329 30.8327 29.2882 30.8327 27.9995C30.8327 26.7108 29.788 25.6662 28.4994 25.6662C27.2107 25.6662 26.166 26.7108 26.166 27.9995C26.166 29.2882 27.2107 30.3329 28.4994 30.3329Z" fill="#183165"/>
</g>
</svg>
