<svg width="57" height="56" viewBox="0 0 57 56" fill="none" xmlns="http://www.w3.org/2000/svg">
<g id="Frame">
<path id="Vector" d="M9.83398 35V19.8333C9.83398 14.0343 14.535 9.33333 20.334 9.33333C26.133 9.33333 30.834 14.0343 30.834 19.8333V36.1667C30.834 39.3883 33.4457 42 36.6673 42C39.889 42 42.5006 39.3883 42.5006 36.1667V20.6017C39.7818 19.6407 37.834 17.0478 37.834 14C37.834 10.134 40.9679 7 44.834 7C48.7001 7 51.834 10.134 51.834 14C51.834 17.0478 49.8861 19.6407 47.1673 20.6017V36.1667C47.1673 41.9657 42.4664 46.6667 36.6673 46.6667C30.8683 46.6667 26.1673 41.9657 26.1673 36.1667V19.8333C26.1673 16.6117 23.5556 14 20.334 14C17.1123 14 14.5007 16.6117 14.5007 19.8333V35H21.5007L12.1673 46.6667L2.83398 35H9.83398ZM44.834 16.3333C46.1227 16.3333 47.1673 15.2887 47.1673 14C47.1673 12.7113 46.1227 11.6667 44.834 11.6667C43.5453 11.6667 42.5006 12.7113 42.5006 14C42.5006 15.2887 43.5453 16.3333 44.834 16.3333Z" fill="#183165"/>
</g>
</svg>
