<svg width="58" height="58" viewBox="0 0 58 58" fill="none" xmlns="http://www.w3.org/2000/svg">
<g id="lightbulb-line 1" clip-path="url(#clip0_138_1134)">
<path id="Vector" d="M24.1013 43.5001H26.5832V31.4167H31.4165V43.5001H33.8984C34.2174 40.5952 35.6988 38.1979 38.1034 35.5806C38.3765 35.2858 40.1141 33.4854 40.3195 33.2292C42.0264 31.0968 43.0962 28.5257 43.4059 25.8119C43.7155 23.0982 43.2524 20.3521 42.0698 17.89C40.8872 15.4279 39.0332 13.3499 36.7214 11.8953C34.4095 10.4407 31.7338 9.66867 29.0025 9.66809C26.2711 9.66751 23.5951 10.4384 21.2826 11.892C18.9701 13.3456 17.1153 15.4228 15.9316 17.8844C14.748 20.346 14.2836 23.0919 14.5921 25.8058C14.9006 28.5197 15.9694 31.0913 17.6753 33.2244C17.8832 33.483 19.6256 35.2858 19.8938 35.5782C22.3008 38.1979 23.7823 40.5952 24.1013 43.5001ZM24.1665 48.3334V50.7501H33.8332V48.3334H24.1665ZM13.9053 36.2501C11.6293 33.4064 10.2029 29.9775 9.7904 26.3586C9.37791 22.7396 9.99614 19.0777 11.5739 15.7948C13.1516 12.5118 15.6246 9.74134 18.7081 7.80247C21.7916 5.8636 25.3601 4.83523 29.0025 4.83582C32.6448 4.8364 36.213 5.86591 39.2958 7.80577C42.3787 9.74562 44.8509 12.5169 46.4275 15.8004C48.0042 19.0838 48.6213 22.7459 48.2076 26.3647C47.794 29.9835 46.3665 33.4119 44.0895 36.2549C42.5912 38.1206 38.6665 41.0834 38.6665 44.7084V50.7501C38.6665 52.0319 38.1573 53.2613 37.2509 54.1677C36.3444 55.0742 35.1151 55.5834 33.8332 55.5834H24.1665C22.8846 55.5834 21.6553 55.0742 20.7488 54.1677C19.8424 53.2613 19.3332 52.0319 19.3332 50.7501V44.7084C19.3332 41.0834 15.4061 38.1206 13.9053 36.2501Z" fill="#F39C12"/>
</g>
<defs>
<clipPath id="clip0_138_1134">
<rect width="58" height="58" fill="white"/>
</clipPath>
</defs>
</svg>
