<svg width="58" height="58" viewBox="0 0 58 58" fill="none" xmlns="http://www.w3.org/2000/svg">
<g id="stack-line 1" clip-path="url(#clip0_138_1156)">
<path id="Vector" d="M48.533 36.7334L51.4378 38.4758C51.617 38.5831 51.7654 38.735 51.8684 38.9167C51.9714 39.0984 52.0255 39.3037 52.0255 39.5126C52.0255 39.7214 51.9714 39.9267 51.8684 40.1084C51.7654 40.2901 51.617 40.442 51.4378 40.5493L30.2437 53.2658C29.8678 53.4916 29.4376 53.6109 28.9991 53.6109C28.5606 53.6109 28.1304 53.4916 27.7545 53.2658L6.56033 40.5493C6.38112 40.442 6.23279 40.2901 6.12979 40.1084C6.0268 39.9267 5.97266 39.7214 5.97266 39.5126C5.97266 39.3037 6.0268 39.0984 6.12979 38.9167C6.23279 38.735 6.38112 38.5831 6.56033 38.4758L9.46516 36.7334L28.9991 48.4542L48.533 36.7334ZM48.533 25.3751L51.4378 27.1175C51.617 27.2248 51.7654 27.3767 51.8684 27.5584C51.9714 27.7401 52.0255 27.9454 52.0255 28.1542C52.0255 28.3631 51.9714 28.5684 51.8684 28.7501C51.7654 28.9318 51.617 29.0837 51.4378 29.191L28.9991 42.6542L6.56033 29.191C6.38112 29.0837 6.23279 28.9318 6.12979 28.7501C6.0268 28.5684 5.97266 28.3631 5.97266 28.1542C5.97266 27.9454 6.0268 27.7401 6.12979 27.5584C6.23279 27.3767 6.38112 27.2248 6.56033 27.1175L9.46516 25.3751L28.9991 37.0959L48.533 25.3751ZM30.2412 3.16348L51.4378 15.88C51.617 15.9873 51.7654 16.1392 51.8684 16.3209C51.9714 16.5026 52.0255 16.7079 52.0255 16.9167C52.0255 17.1256 51.9714 17.3309 51.8684 17.5126C51.7654 17.6943 51.617 17.8462 51.4378 17.9535L28.9991 31.4167L6.56033 17.9535C6.38112 17.8462 6.23279 17.6943 6.12979 17.5126C6.0268 17.3309 5.97266 17.1256 5.97266 16.9167C5.97266 16.7079 6.0268 16.5026 6.12979 16.3209C6.23279 16.1392 6.38112 15.9873 6.56033 15.88L27.7545 3.16348C28.1304 2.93766 28.5606 2.81836 28.9991 2.81836C29.4376 2.81836 29.8678 2.93766 30.2437 3.16348H30.2412ZM28.9991 8.0524L14.226 16.9167L28.9991 25.7811L43.7722 16.9167L28.9991 8.0524Z" fill="#F39C12"/>
</g>
<defs>
<clipPath id="clip0_138_1156">
<rect width="58" height="58" fill="white"/>
</clipPath>
</defs>
</svg>
