<svg width="52" height="52" viewBox="0 0 52 52" fill="none" xmlns="http://www.w3.org/2000/svg">
<g id="timer-line 1" clip-path="url(#clip0_138_1142)">
<path id="Vector" d="M38.1714 12.9307L41.3196 9.78258L44.3832 12.8462L41.2351 15.9944C44.3459 19.8883 45.8477 24.8255 45.4321 29.792C45.0164 34.7586 42.7149 39.3775 39.0001 42.7001C35.2854 46.0228 30.4394 47.797 25.4574 47.6583C20.4754 47.5196 15.7356 45.4786 12.2114 41.9544C8.68726 38.4302 6.64625 33.6904 6.50756 28.7084C6.36887 23.7265 8.14303 18.8805 11.4657 15.1657C14.7883 11.4509 19.4072 9.14938 24.3738 8.73374C29.3403 8.3181 34.2775 9.81991 38.1714 12.9307ZM25.9991 43.3334C27.9908 43.3334 29.963 42.9411 31.8031 42.1789C33.6432 41.4167 35.3152 40.2996 36.7235 38.8912C38.1319 37.4828 39.2491 35.8109 40.0112 33.9708C40.7734 32.1307 41.1657 30.1585 41.1657 28.1667C41.1657 26.175 40.7734 24.2028 40.0112 22.3627C39.2491 20.5226 38.1319 18.8507 36.7235 17.4423C35.3152 16.0339 33.6432 14.9168 31.8031 14.1546C29.963 13.3924 27.9908 13.0001 25.9991 13.0001C21.9766 13.0001 18.1189 14.598 15.2746 17.4423C12.4303 20.2866 10.8324 24.1443 10.8324 28.1667C10.8324 32.1892 12.4303 36.0469 15.2746 38.8912C18.1189 41.7355 21.9766 43.3334 25.9991 43.3334ZM23.8324 17.3334H28.1657V30.3334H23.8324V17.3334ZM17.3324 2.16675H34.6657V6.50008H17.3324V2.16675Z" fill="#F39C12"/>
</g>
<defs>
<clipPath id="clip0_138_1142">
<rect width="52" height="52" fill="white"/>
</clipPath>
</defs>
</svg>
