<svg width="49" height="49" viewBox="0 0 49 49" fill="none" xmlns="http://www.w3.org/2000/svg">
<path id="Vector" d="M43.3882 1.68393C42.9074 1.13827 42.23 0.80538 41.5042 0.758169C41.146 0.731522 40.786 0.77535 40.4447 0.887174L27.4369 5.32308C26.7469 5.55838 26.1787 6.05813 25.8572 6.7124C25.5357 7.36666 25.4872 8.12185 25.7225 8.81182C25.9578 9.5018 26.4576 10.07 27.1118 10.3916C27.7661 10.7131 28.5213 10.7615 29.2113 10.5262L35.9493 8.2284L26.3659 27.7305L14.8791 22.0641C14.5541 21.9028 14.2004 21.8074 13.8383 21.7834C13.4762 21.7594 13.113 21.8074 12.7696 21.9245C12.4261 22.0416 12.1093 22.2256 11.8373 22.4658C11.5653 22.706 11.3436 22.9976 11.1849 23.3239L0.898643 44.2564C0.737278 44.5814 0.64186 44.9351 0.617894 45.2972C0.593927 45.6593 0.641887 46.0225 0.759006 46.3659C0.876124 46.7094 1.06008 47.0262 1.30027 47.2982C1.54046 47.5702 1.83213 47.7919 2.15844 47.9506C2.48344 48.112 2.83718 48.2074 3.19925 48.2313C3.56131 48.2553 3.92454 48.2074 4.26797 48.0902C4.61141 47.9731 4.92826 47.7892 5.20024 47.549C5.47223 47.3088 5.69396 47.0171 5.85265 46.6908L14.9128 28.2093L26.3997 33.8757C26.7247 34.037 27.0784 34.1324 27.4405 34.1564C27.8025 34.1804 28.1657 34.1324 28.5092 34.0153C28.8526 33.8982 29.1695 33.7142 29.4415 33.474C29.7134 33.2338 29.9352 32.9422 30.0939 32.6159L40.8684 10.6457L43.1662 17.3837C43.4015 18.0737 43.9013 18.6419 44.5555 18.9634C45.2098 19.2849 45.965 19.3334 46.655 19.0981C47.3449 18.8628 47.9132 18.363 48.2347 17.7088C48.5562 17.0545 48.6046 16.2993 48.3693 15.6093L43.9334 2.60155C43.8134 2.26299 43.6281 1.95124 43.3882 1.68393Z" fill="#F39C12"/>
</svg>
