<svg width="29" height="28" viewBox="0 0 29 28" fill="none" xmlns="http://www.w3.org/2000/svg">
<rect width="29" height="28" fill="#F5F5F5"/>
<g id="Oceann BI" clip-path="url(#clip0_1_7)">
<rect width="1280" height="5413" transform="translate(-90 -1575)" fill="white"/>
<g id="Group 2002">
<g id="Group 2001">
<g id="Group 2000">
<g id="Rectangle 669">
<rect x="-50" y="-50" width="584" height="308" rx="10" fill="white"/>
<rect x="-49.5" y="-49.5" width="583" height="307" rx="9.5" stroke="black" stroke-opacity="0.1"/>
</g>
<g id="Group 1949">
<g id="Group 1942">
<g id="Ellipse 108" filter="url(#filter0_d_1_7)">
<circle cx="14" cy="14" r="32" fill="#7400B8"/>
</g>
</g>
</g>
</g>
<g id="Group 1952">
<g id="Rectangle 669_2" filter="url(#filter1_d_1_7)">
<rect x="-50" y="-390" width="584" height="308" rx="10" fill="#0D1337"/>
</g>
</g>
</g>
</g>
<g id="Frame">
<path id="Vector" d="M3.63118 3.5H25.3812C26.0486 3.5 26.5895 4.02234 26.5895 4.66667V23.3333C26.5895 23.9777 26.0486 24.5 25.3812 24.5H3.63118C2.96385 24.5 2.42285 23.9777 2.42285 23.3333V4.66667C2.42285 4.02234 2.96385 3.5 3.63118 3.5ZM24.1729 12.8333H4.83952V22.1667H24.1729V12.8333ZM24.1729 10.5V5.83333H4.83952V10.5H24.1729ZM16.9229 17.5H21.7562V19.8333H16.9229V17.5Z" fill="white"/>
</g>
</g>
<defs>
<filter id="filter0_d_1_7" x="-80" y="-58" width="208" height="208" filterUnits="userSpaceOnUse" color-interpolation-filters="sRGB">
<feFlood flood-opacity="0" result="BackgroundImageFix"/>
<feColorMatrix in="SourceAlpha" type="matrix" values="0 0 0 0 0 0 0 0 0 0 0 0 0 0 0 0 0 0 127 0" result="hardAlpha"/>
<feOffset dx="10" dy="32"/>
<feGaussianBlur stdDeviation="36"/>
<feColorMatrix type="matrix" values="0 0 0 0 0.2 0 0 0 0 0.2 0 0 0 0 0.2 0 0 0 0.05 0"/>
<feBlend mode="normal" in2="BackgroundImageFix" result="effect1_dropShadow_1_7"/>
<feBlend mode="normal" in="SourceGraphic" in2="effect1_dropShadow_1_7" result="shape"/>
</filter>
<filter id="filter1_d_1_7" x="-90" y="-418" width="728" height="452" filterUnits="userSpaceOnUse" color-interpolation-filters="sRGB">
<feFlood flood-opacity="0" result="BackgroundImageFix"/>
<feColorMatrix in="SourceAlpha" type="matrix" values="0 0 0 0 0 0 0 0 0 0 0 0 0 0 0 0 0 0 127 0" result="hardAlpha"/>
<feOffset dx="32" dy="44"/>
<feGaussianBlur stdDeviation="36"/>
<feColorMatrix type="matrix" values="0 0 0 0 0.2 0 0 0 0 0.2 0 0 0 0 0.2 0 0 0 0.08 0"/>
<feBlend mode="normal" in2="BackgroundImageFix" result="effect1_dropShadow_1_7"/>
<feBlend mode="normal" in="SourceGraphic" in2="effect1_dropShadow_1_7" result="shape"/>
</filter>
<clipPath id="clip0_1_7">
<rect width="1280" height="5413" fill="white" transform="translate(-90 -1575)"/>
</clipPath>
</defs>
</svg>
