<svg width="31" height="30" viewBox="0 0 31 30" fill="none" xmlns="http://www.w3.org/2000/svg">
<rect width="31" height="30" fill="#F5F5F5"/>
<g id="Oceann BI" clip-path="url(#clip0_1_7)">
<rect width="1280" height="5413" transform="translate(-705 -1233)" fill="white"/>
<g id="Group 2002">
<g id="Group 2001">
<g id="Group 1946">
<g id="Rectangle 669">
<rect x="-49" y="-48" width="584" height="308" rx="10" fill="white"/>
<rect x="-48.5" y="-47.5" width="583" height="307" rx="9.5" stroke="black" stroke-opacity="0.1"/>
</g>
<g id="Group 1945">
<g id="Group 1944">
<g id="Ellipse 108" filter="url(#filter0_d_1_7)">
<circle cx="15" cy="16" r="32" fill="#00B4D8"/>
</g>
</g>
</g>
</g>
<g id="Group 1952">
<g id="Rectangle 669_2" filter="url(#filter1_d_1_7)">
<rect x="-665" y="-48" width="584" height="308" rx="10" fill="#0D1337"/>
</g>
</g>
</g>
</g>
<g id="Frame">
<path id="Vector" d="M3.875 4.75H14.2083V14.75H3.875V4.75ZM3.875 17.25H14.2083V27.25H3.875V17.25ZM16.7917 4.75H27.125V14.75H16.7917V4.75ZM16.7917 17.25H27.125V27.25H16.7917V17.25ZM19.375 7.25V12.25H24.5417V7.25H19.375ZM19.375 19.75V24.75H24.5417V19.75H19.375ZM6.45833 7.25V12.25H11.625V7.25H6.45833ZM6.45833 19.75V24.75H11.625V19.75H6.45833Z" fill="white"/>
</g>
</g>
<defs>
<filter id="filter0_d_1_7" x="-79" y="-56" width="208" height="208" filterUnits="userSpaceOnUse" color-interpolation-filters="sRGB">
<feFlood flood-opacity="0" result="BackgroundImageFix"/>
<feColorMatrix in="SourceAlpha" type="matrix" values="0 0 0 0 0 0 0 0 0 0 0 0 0 0 0 0 0 0 127 0" result="hardAlpha"/>
<feOffset dx="10" dy="32"/>
<feGaussianBlur stdDeviation="36"/>
<feColorMatrix type="matrix" values="0 0 0 0 0.2 0 0 0 0 0.2 0 0 0 0 0.2 0 0 0 0.05 0"/>
<feBlend mode="normal" in2="BackgroundImageFix" result="effect1_dropShadow_1_7"/>
<feBlend mode="normal" in="SourceGraphic" in2="effect1_dropShadow_1_7" result="shape"/>
</filter>
<filter id="filter1_d_1_7" x="-705" y="-76" width="728" height="452" filterUnits="userSpaceOnUse" color-interpolation-filters="sRGB">
<feFlood flood-opacity="0" result="BackgroundImageFix"/>
<feColorMatrix in="SourceAlpha" type="matrix" values="0 0 0 0 0 0 0 0 0 0 0 0 0 0 0 0 0 0 127 0" result="hardAlpha"/>
<feOffset dx="32" dy="44"/>
<feGaussianBlur stdDeviation="36"/>
<feColorMatrix type="matrix" values="0 0 0 0 0.2 0 0 0 0 0.2 0 0 0 0 0.2 0 0 0 0.08 0"/>
<feBlend mode="normal" in2="BackgroundImageFix" result="effect1_dropShadow_1_7"/>
<feBlend mode="normal" in="SourceGraphic" in2="effect1_dropShadow_1_7" result="shape"/>
</filter>
<clipPath id="clip0_1_7">
<rect width="1280" height="5413" fill="white" transform="translate(-705 -1233)"/>
</clipPath>
</defs>
</svg>
