<svg width="33" height="33" viewBox="0 0 33 33" fill="none" xmlns="http://www.w3.org/2000/svg">
<g id="Frame">
<path id="Vector" d="M5.06771 6.81478C8.29964 3.58285 13.4491 3.43711 16.8539 6.37757C20.2566 3.43711 25.4061 3.58285 28.6379 6.81478C31.8641 10.0409 32.015 15.1777 29.0909 18.5827L18.7385 28.9707C17.7443 29.9649 16.1607 30.0101 15.1131 29.1063L14.9673 28.9707L4.61475 18.5827C1.69057 15.1777 1.84156 10.0409 5.06771 6.81478ZM6.95332 8.70039C4.67712 10.9766 4.61209 14.6266 6.75822 16.9814L6.95332 17.1857L16.8529 27.0851L23.923 20.0131L19.2098 15.3001L17.7957 16.7143C16.2335 18.2763 13.7009 18.2763 12.1388 16.7143C10.5767 15.1522 10.5767 12.6195 12.1388 11.0574L14.9403 8.25409C12.6568 6.42595 9.34721 6.50969 7.15767 8.50529L6.95332 8.70039ZM18.267 12.4716C18.7877 11.9509 19.6319 11.9509 20.1526 12.4716L25.8086 18.1275L26.7523 17.1857C29.0954 14.8426 29.0954 11.0435 26.7523 8.70039C24.4761 6.42419 20.8261 6.35915 18.4714 8.50529L18.267 8.70039L14.0244 12.943C13.5409 13.4265 13.5063 14.189 13.9208 14.7123L14.0244 14.8286C14.5079 15.3122 15.2703 15.3467 15.7937 14.9322L15.9101 14.8286L18.267 12.4716Z" fill="white"/>
</g>
</svg>
