<svg width="38" height="31" viewBox="0 0 38 31" fill="none" xmlns="http://www.w3.org/2000/svg">
<g id="icn resize icn-md" clip-path="url(#clip0_283_779)">
<path id="Vector" fill-rule="evenodd" clip-rule="evenodd" d="M35.9245 29.8595C35.9245 29.8595 38.2904 29.8595 38.2904 27.4724C38.2904 25.0852 35.9245 17.9236 26.461 17.9236C16.9976 17.9236 14.6317 25.0852 14.6317 27.4724C14.6317 29.8595 16.9976 29.8595 16.9976 29.8595H35.9245ZM17.0496 27.4724H35.8725C35.8835 27.471 35.8946 27.4695 35.9056 27.4676L35.9245 27.4628C35.9198 26.8326 35.5294 25.004 34.1264 23.3569C32.8205 21.8123 30.5256 20.3108 26.461 20.3108C22.3988 20.3108 20.104 21.8147 18.7956 23.3569C17.3927 25.004 16.9999 26.835 16.9976 27.4628C17.0149 27.4662 17.0322 27.4694 17.0496 27.4724ZM26.461 13.1493C27.716 13.1493 28.9195 12.6463 29.8069 11.7509C30.6943 10.8555 31.1928 9.64116 31.1928 8.37492C31.1928 7.10868 30.6943 5.8943 29.8069 4.99894C28.9195 4.10357 27.716 3.60056 26.461 3.60056C25.2061 3.60056 24.0026 4.10357 23.1152 4.99894C22.2278 5.8943 21.7293 7.10868 21.7293 8.37492C21.7293 9.64116 22.2278 10.8555 23.1152 11.7509C24.0026 12.6463 25.2061 13.1493 26.461 13.1493ZM33.5586 8.37492C33.5586 9.31538 33.3751 10.2466 33.0184 11.1155C32.6617 11.9844 32.1389 12.7739 31.4798 13.4389C30.8207 14.1039 30.0383 14.6314 29.1772 14.9913C28.3161 15.3512 27.3931 15.5365 26.461 15.5365C25.529 15.5365 24.606 15.3512 23.7449 14.9913C22.8838 14.6314 22.1014 14.1039 21.4423 13.4389C20.7832 12.7739 20.2604 11.9844 19.9037 11.1155C19.547 10.2466 19.3634 9.31538 19.3634 8.37492C19.3634 6.47556 20.1112 4.65399 21.4423 3.31095C22.7733 1.9679 24.5786 1.21338 26.461 1.21338C28.3434 1.21338 30.1487 1.9679 31.4798 3.31095C32.8109 4.65399 33.5586 6.47556 33.5586 8.37492ZM16.8462 18.592C15.8998 18.2914 14.9242 18.0937 13.9362 18.0024C13.381 17.9491 12.8235 17.9229 12.2659 17.9236C2.80239 17.9236 0.436523 25.0852 0.436523 27.4724C0.436523 29.0646 1.22436 29.8595 2.80239 29.8595H12.7769C12.4261 29.1143 12.2512 28.2972 12.2659 27.4724C12.2659 25.0613 13.1578 22.5977 14.8446 20.54C15.4195 19.8382 16.0891 19.1817 16.8462 18.592ZM12.0766 20.3108C8.13032 20.3586 5.88984 21.8386 4.60045 23.3569C3.18802 25.0136 2.80239 26.8493 2.80239 27.4724H9.89998C9.89998 24.9777 10.6642 22.4927 12.0766 20.3108ZM3.98532 9.56851C3.98532 7.66915 4.7331 5.84758 6.06416 4.50453C7.39522 3.16149 9.20052 2.40697 11.0829 2.40697C12.9653 2.40697 14.7706 3.16149 16.1017 4.50453C17.4327 5.84758 18.1805 7.66915 18.1805 9.56851C18.1805 11.4679 17.4327 13.2894 16.1017 14.6325C14.7706 15.9755 12.9653 16.73 11.0829 16.73C9.20052 16.73 7.39522 15.9755 6.06416 14.6325C4.7331 13.2894 3.98532 11.4679 3.98532 9.56851ZM11.0829 4.79415C9.82798 4.79415 8.62445 5.29716 7.73708 6.19252C6.84971 7.08789 6.35119 8.30227 6.35119 9.56851C6.35119 10.8347 6.84971 12.0491 7.73708 12.9445C8.62445 13.8399 9.82798 14.3429 11.0829 14.3429C12.3378 14.3429 13.5414 13.8399 14.4288 12.9445C15.3161 12.0491 15.8146 10.8347 15.8146 9.56851C15.8146 8.30227 15.3161 7.08789 14.4288 6.19252C13.5414 5.29716 12.3378 4.79415 11.0829 4.79415Z" fill="#23A6F0"/>
</g>
<defs>
<clipPath id="clip0_283_779">
<rect width="36.8308" height="30.3313" fill="white" transform="translate(0.692383 0.190186)"/>
</clipPath>
</defs>
</svg>
